<svg width="34" height="34" viewBox="0 0 34 34" fill="none" xmlns="http://www.w3.org/2000/svg">
<path d="M3.77778 34C2.73889 34 1.84985 33.6304 1.11067 32.8912C0.371482 32.152 0.00125926 31.2624 0 30.2222V3.77778C0 2.73889 0.370222 1.84985 1.11067 1.11067C1.85111 0.371482 2.74015 0.00125926 3.77778 0H30.2222C31.2611 0 32.1508 0.370222 32.8912 1.11067C33.6317 1.85111 34.0013 2.74015 34 3.77778V30.2222C34 31.2611 33.6304 32.1508 32.8912 32.8912C32.152 33.6317 31.2624 34.0013 30.2222 34H3.77778ZM3.77778 30.2222H30.2222V3.77778H3.77778V30.2222ZM9.44444 13.2222C8.90926 13.2222 8.46096 13.4036 8.09956 13.7662C7.73815 14.1289 7.55681 14.5772 7.55555 15.1111V24.5556C7.55555 25.0907 7.73689 25.5397 8.09956 25.9023C8.46222 26.265 8.91052 26.4457 9.44444 26.4444C9.97963 26.4444 10.4286 26.2631 10.7912 25.9004C11.1539 25.5378 11.3346 25.0895 11.3333 24.5556V15.1111C11.3333 14.5759 11.152 14.1276 10.7893 13.7662C10.4267 13.4048 9.97837 13.2235 9.44444 13.2222ZM17 7.55555C16.4648 7.55555 16.0165 7.73689 15.6551 8.09956C15.2937 8.46222 15.1124 8.91052 15.1111 9.44444V24.5556C15.1111 25.0907 15.2924 25.5397 15.6551 25.9023C16.0178 26.265 16.4661 26.4457 17 26.4444C17.5352 26.4444 17.9841 26.2631 18.3468 25.9004C18.7094 25.5378 18.8901 25.0895 18.8889 24.5556V9.44444C18.8889 8.90926 18.7076 8.46096 18.3449 8.09956C17.9822 7.73815 17.5339 7.55681 17 7.55555ZM24.5556 18.8889C24.0204 18.8889 23.5721 19.0702 23.2107 19.4329C22.8493 19.7956 22.6679 20.2439 22.6667 20.7778V24.5556C22.6667 25.0907 22.848 25.5397 23.2107 25.9023C23.5733 26.265 24.0216 26.4457 24.5556 26.4444C25.0907 26.4444 25.5397 26.2631 25.9023 25.9004C26.265 25.5378 26.4457 25.0895 26.4444 24.5556V20.7778C26.4444 20.2426 26.2631 19.7943 25.9004 19.4329C25.5378 19.0715 25.0895 18.8901 24.5556 18.8889Z" fill="#A7A7A7"/>
</svg>
