<svg width="20" height="13" viewBox="0 0 20 13" fill="none" xmlns="http://www.w3.org/2000/svg">
<path d="M8.6595 11.9333L0.344086 2.26667C0.229391 2.13333 0.143752 1.98933 0.0871687 1.83467C0.0305857 1.68 0.00152927 1.51289 0 1.33333C0 0.977778 0.10552 0.666666 0.316559 0.399999C0.527599 0.133332 0.804397 0 1.14695 0H18.5806C18.9247 0 19.2023 0.133332 19.4133 0.399999C19.6244 0.666666 19.7291 0.977778 19.7276 1.33333C19.7276 1.42222 19.6129 1.73333 19.3835 2.26667L11.0681 11.9333C10.8769 12.1556 10.6858 12.3111 10.4946 12.4C10.3035 12.4889 10.0932 12.5333 9.8638 12.5333C9.63441 12.5333 9.42413 12.4889 9.23298 12.4C9.04182 12.3111 8.85066 12.1556 8.6595 11.9333Z" fill="#A7A7A7"/>
</svg>
