<svg width="408" height="102" viewBox="0 0 408 102" fill="none" xmlns="http://www.w3.org/2000/svg">
<path d="M27.3663 55.5425V40.997H33.1049C34.2081 40.997 35.148 41.2077 35.9245 41.6291C36.701 42.0458 37.2929 42.6258 37.7001 43.3692C38.112 44.1078 38.318 44.9601 38.318 45.926C38.318 46.8919 38.1096 47.7442 37.693 48.4828C37.2763 49.2215 36.6726 49.7967 35.8819 50.2087C35.0959 50.6206 34.1442 50.8266 33.0268 50.8266H29.3691V48.3621H32.5296C33.1215 48.3621 33.6092 48.2603 33.9927 48.0567C34.3809 47.8484 34.6698 47.5619 34.8592 47.1973C35.0533 46.828 35.1503 46.4042 35.1503 45.926C35.1503 45.443 35.0533 45.0216 34.8592 44.6618C34.6698 44.2972 34.3809 44.0155 33.9927 43.8166C33.6044 43.613 33.112 43.5112 32.5154 43.5112H30.4415V55.5425H27.3663ZM43.2842 40.997V55.5425H40.2587V40.997H43.2842ZM48.8187 55.7484C48.1226 55.7484 47.5024 55.6277 46.9579 55.3862C46.4134 55.14 45.9825 54.7778 45.6653 54.2996C45.3528 53.8166 45.1965 53.2153 45.1965 52.4956C45.1965 51.8895 45.3078 51.3805 45.5303 50.9686C45.7529 50.5567 46.0559 50.2252 46.4394 49.9743C46.8229 49.7234 47.2585 49.534 47.7462 49.4061C48.2387 49.2783 48.7547 49.1883 49.2945 49.1362C49.929 49.0699 50.4404 49.0084 50.8286 48.9516C51.2169 48.89 51.4986 48.8001 51.6738 48.6817C51.849 48.5633 51.9366 48.3881 51.9366 48.1561V48.1135C51.9366 47.6637 51.7945 47.3157 51.5104 47.0695C51.2311 46.8233 50.8333 46.7002 50.3172 46.7002C49.7727 46.7002 49.3395 46.8209 49.0175 47.0624C48.6956 47.2991 48.4825 47.5974 48.3783 47.9573L45.58 47.73C45.7221 47.0671 46.0014 46.4942 46.4181 46.0112C46.8348 45.5235 47.3722 45.1495 48.0303 44.8891C48.6932 44.6239 49.4602 44.4913 50.3315 44.4913C50.9375 44.4913 51.5175 44.5624 52.0715 44.7044C52.6302 44.8465 53.125 45.0666 53.5559 45.3649C53.9915 45.6632 54.3348 46.0467 54.5857 46.5155C54.8367 46.9795 54.9621 47.5359 54.9621 48.1845V55.5425H52.0928V54.0297H52.0076C51.8324 54.3706 51.598 54.6713 51.3045 54.9317C51.0109 55.1874 50.6582 55.3886 50.2462 55.5354C49.8343 55.6774 49.3584 55.7484 48.8187 55.7484ZM49.6851 53.6604C50.1302 53.6604 50.5232 53.5728 50.8641 53.3976C51.205 53.2177 51.4726 52.9762 51.6667 52.6732C51.8608 52.3701 51.9579 52.0269 51.9579 51.6433V50.4857C51.8632 50.5472 51.733 50.604 51.5673 50.6561C51.4063 50.7035 51.224 50.7484 51.0204 50.7911C50.8168 50.8289 50.6132 50.8644 50.4096 50.8976C50.206 50.926 50.0213 50.952 49.8556 50.9757C49.5005 51.0278 49.1904 51.1107 48.9252 51.2243C48.6601 51.3379 48.4541 51.4918 48.3073 51.6859C48.1605 51.8753 48.0871 52.1121 48.0871 52.3962C48.0871 52.8081 48.2363 53.123 48.5346 53.3408C48.8376 53.5538 49.2211 53.6604 49.6851 53.6604ZM60.335 49.2357V55.5425H57.3094V44.6334H60.193V46.5581H60.3208C60.5623 45.9236 60.9671 45.4217 61.5353 45.0524C62.1035 44.6784 62.7924 44.4913 63.6021 44.4913C64.3596 44.4913 65.0201 44.6571 65.5836 44.9885C66.147 45.3199 66.585 45.7934 66.8975 46.409C67.21 47.0198 67.3663 47.7489 67.3663 48.5965V55.5425H64.3407V49.1362C64.3454 48.4686 64.175 47.9478 63.8293 47.5737C63.4837 47.1949 63.0078 47.0055 62.4018 47.0055C61.9946 47.0055 61.6347 47.0931 61.3222 47.2683C61.0145 47.4435 60.773 47.6992 60.5978 48.0354C60.4273 48.3668 60.3397 48.7669 60.335 49.2357Z" fill="black"/>
<circle cx="50.8789" cy="50.8789" r="40.1587" stroke="#48C7B0" stroke-width="11"/>
<circle cx="50.8983" cy="50.8983" r="50.3983" stroke="#48C7B0"/>
<path d="M191.742 55.5425H186.586V40.997H191.785C193.248 40.997 194.507 41.2882 195.563 41.8706C196.619 42.4483 197.431 43.2792 197.999 44.3635C198.572 45.4478 198.859 46.7451 198.859 48.2555C198.859 49.7707 198.572 51.0728 197.999 52.1618C197.431 53.2508 196.614 54.0865 195.549 54.6689C194.488 55.2513 193.22 55.5425 191.742 55.5425ZM189.661 52.9075H191.614C192.523 52.9075 193.288 52.7466 193.908 52.4246C194.533 52.0979 195.002 51.5936 195.315 50.9118C195.632 50.2252 195.791 49.3398 195.791 48.2555C195.791 47.1807 195.632 46.3024 195.315 45.6206C195.002 44.9388 194.536 44.4369 193.916 44.1149C193.295 43.793 192.531 43.632 191.621 43.632H189.661V52.9075ZM201.08 55.5425V44.6334H204.013V46.5368H204.127C204.326 45.8597 204.659 45.3484 205.128 45.0027C205.597 44.6523 206.137 44.4771 206.748 44.4771C206.899 44.4771 207.062 44.4866 207.238 44.5055C207.413 44.5245 207.567 44.5505 207.699 44.5837V47.2683C207.557 47.2257 207.361 47.1878 207.11 47.1547C206.859 47.1216 206.629 47.105 206.421 47.105C205.976 47.105 205.578 47.202 205.228 47.3962C204.882 47.5856 204.607 47.8507 204.404 48.1916C204.205 48.5325 204.106 48.9255 204.106 49.3706V55.5425H201.08ZM212.062 55.7484C211.366 55.7484 210.746 55.6277 210.201 55.3862C209.657 55.14 209.226 54.7778 208.908 54.2996C208.596 53.8166 208.44 53.2153 208.44 52.4956C208.44 51.8895 208.551 51.3805 208.773 50.9686C208.996 50.5567 209.299 50.2252 209.683 49.9743C210.066 49.7234 210.502 49.534 210.989 49.4061C211.482 49.2783 211.998 49.1883 212.538 49.1362C213.172 49.0699 213.684 49.0084 214.072 48.9516C214.46 48.89 214.742 48.8001 214.917 48.6817C215.092 48.5633 215.18 48.3881 215.18 48.1561V48.1135C215.18 47.6637 215.038 47.3157 214.754 47.0695C214.474 46.8233 214.077 46.7002 213.56 46.7002C213.016 46.7002 212.583 46.8209 212.261 47.0624C211.939 47.2991 211.726 47.5974 211.621 47.9573L208.823 47.73C208.965 47.0671 209.245 46.4942 209.661 46.0112C210.078 45.5235 210.615 45.1495 211.273 44.8891C211.936 44.6239 212.703 44.4913 213.575 44.4913C214.181 44.4913 214.761 44.5624 215.315 44.7044C215.873 44.8465 216.368 45.0666 216.799 45.3649C217.235 45.6632 217.578 46.0467 217.829 46.5155C218.08 46.9795 218.205 47.5359 218.205 48.1845V55.5425H215.336V54.0297H215.251C215.076 54.3706 214.841 54.6713 214.548 54.9317C214.254 55.1874 213.901 55.3886 213.489 55.5354C213.077 55.6774 212.602 55.7484 212.062 55.7484ZM212.928 53.6604C213.373 53.6604 213.766 53.5728 214.107 53.3976C214.448 53.2177 214.716 52.9762 214.91 52.6732C215.104 52.3701 215.201 52.0269 215.201 51.6433V50.4857C215.106 50.5472 214.976 50.604 214.81 50.6561C214.649 50.7035 214.467 50.7484 214.264 50.7911C214.06 50.8289 213.856 50.8644 213.653 50.8976C213.449 50.926 213.264 50.952 213.099 50.9757C212.744 51.0278 212.434 51.1107 212.168 51.2243C211.903 51.3379 211.697 51.4918 211.55 51.6859C211.404 51.8753 211.33 52.1121 211.33 52.3962C211.33 52.8081 211.479 53.123 211.778 53.3408C212.081 53.5538 212.464 53.6604 212.928 53.6604ZM222.705 55.5425L219.736 44.6334H222.797L224.487 51.9629H224.587L226.348 44.6334H229.352L231.142 51.9203H231.234L232.896 44.6334H235.95L232.989 55.5425H229.786L227.911 48.6817H227.776L225.901 55.5425H222.705Z" fill="#D9D9D9"/>
<circle cx="210.099" cy="50.8789" r="40.1587" stroke="#D9D9D9" stroke-width="11"/>
<path d="M340.603 40.997L344.119 52.0482H344.254L347.777 40.997H351.186L346.172 55.5425H342.209L337.187 40.997H340.603ZM352.88 55.5425V44.6334H355.905V55.5425H352.88ZM354.4 43.2271C353.95 43.2271 353.564 43.078 353.242 42.7797C352.925 42.4767 352.766 42.1144 352.766 41.693C352.766 41.2764 352.925 40.9189 353.242 40.6206C353.564 40.3176 353.95 40.1661 354.4 40.1661C354.849 40.1661 355.233 40.3176 355.55 40.6206C355.872 40.9189 356.033 41.2764 356.033 41.693C356.033 42.1144 355.872 42.4767 355.55 42.7797C355.233 43.078 354.849 43.2271 354.4 43.2271ZM363.301 55.7555C362.178 55.7555 361.212 55.5283 360.403 55.0737C359.598 54.6145 358.978 53.9658 358.542 53.1277C358.106 52.2849 357.889 51.2882 357.889 50.1377C357.889 49.0155 358.106 48.0306 358.542 47.1831C358.978 46.3356 359.591 45.6751 360.382 45.2016C361.177 44.7281 362.11 44.4913 363.18 44.4913C363.9 44.4913 364.569 44.6073 365.19 44.8394C365.815 45.0666 366.359 45.4099 366.823 45.8692C367.292 46.3285 367.657 46.9061 367.917 47.6021C368.177 48.2934 368.308 49.1031 368.308 50.0311V50.8621H359.096V48.9871H365.46C365.46 48.5515 365.365 48.1656 365.176 47.8294C364.986 47.4932 364.723 47.2305 364.387 47.0411C364.056 46.8469 363.67 46.7499 363.23 46.7499C362.77 46.7499 362.363 46.8564 362.008 47.0695C361.658 47.2778 361.383 47.5595 361.184 47.9146C360.985 48.265 360.883 48.6556 360.879 49.0865V50.8692C360.879 51.409 360.978 51.8753 361.177 52.2683C361.381 52.6613 361.667 52.9644 362.036 53.1774C362.406 53.3905 362.844 53.497 363.35 53.497C363.686 53.497 363.994 53.4497 364.274 53.355C364.553 53.2603 364.792 53.1182 364.991 52.9288C365.19 52.7394 365.341 52.5074 365.445 52.2328L368.244 52.4175C368.102 53.0898 367.811 53.677 367.37 54.1788C366.935 54.676 366.371 55.0643 365.68 55.3436C364.993 55.6182 364.2 55.7555 363.301 55.7555ZM372.356 55.5425L369.387 44.6334H372.448L374.139 51.9629H374.238L375.999 44.6334H379.004L380.793 51.9203H380.886L382.548 44.6334H385.602L382.64 55.5425H379.437L377.562 48.6817H377.427L375.552 55.5425H372.356Z" fill="#D9D9D9"/>
<circle cx="361.489" cy="50.8789" r="40.1587" stroke="#D9D9D9" stroke-width="11"/>
<path d="M134.557 37.4124L129.638 42.3808L138.071 50.8982L129.638 59.4156L134.557 64.3841L147.909 50.8982L134.557 37.4124Z" fill="#D9D9D9"/>
<circle cx="125.723" cy="51.7683" r="3.0452" fill="#D9D9D9"/>
<circle cx="117.023" cy="51.7683" r="3.0452" fill="#D9D9D9"/>
<path d="M134.557 37.4124L129.638 42.3808L138.071 50.8982L129.638 59.4156L134.557 64.3841L147.909 50.8982L134.557 37.4124Z" fill="#D9D9D9"/>
<circle cx="125.723" cy="51.7683" r="3.0452" fill="#D9D9D9"/>
<circle cx="117.023" cy="51.7683" r="3.0452" fill="#D9D9D9"/>
<path d="M291.167 37.4124L286.248 42.3808L294.681 50.8982L286.248 59.4156L291.167 64.3841L304.519 50.8982L291.167 37.4124Z" fill="#D9D9D9"/>
<circle cx="282.333" cy="51.7683" r="3.0452" fill="#D9D9D9"/>
<circle cx="273.633" cy="51.7683" r="3.0452" fill="#D9D9D9"/>
<path d="M291.167 37.4124L286.248 42.3808L294.681 50.8982L286.248 59.4156L291.167 64.3841L304.519 50.8982L291.167 37.4124Z" fill="#D9D9D9"/>
<circle cx="282.333" cy="51.7683" r="3.0452" fill="#D9D9D9"/>
<circle cx="273.633" cy="51.7683" r="3.0452" fill="#D9D9D9"/>
</svg>
