<svg width="37" height="35" viewBox="0 0 37 35" fill="none" xmlns="http://www.w3.org/2000/svg">
<path d="M7.1225 26.425C8.695 25.2875 10.4525 24.3909 12.395 23.7352C14.3375 23.0796 16.3725 22.7512 18.5 22.75C20.6275 22.75 22.6625 23.0784 24.605 23.7352C26.5475 24.3921 28.305 25.2887 29.8775 26.425C30.9567 25.2292 31.7972 23.8729 32.399 22.3562C33.0009 20.8396 33.3012 19.2208 33.3 17.5C33.3 13.6208 31.8588 10.3174 28.9765 7.58975C26.0942 4.86208 22.6021 3.49883 18.5 3.5C14.3992 3.5 10.907 4.86383 8.02345 7.5915C5.13992 10.3192 3.69877 13.622 3.7 17.5C3.7 19.2208 4.00093 20.8396 4.6028 22.3562C5.20467 23.8729 6.04457 25.2292 7.1225 26.425ZM18.5 19.25C16.6808 19.25 15.1466 18.6597 13.8972 17.479C12.6478 16.2983 12.0238 14.847 12.025 13.125C12.025 11.4042 12.6497 9.95283 13.899 8.771C15.1484 7.58917 16.6821 6.99883 18.5 7C20.3192 7 21.8534 7.59092 23.1028 8.77275C24.3522 9.95458 24.9762 11.4053 24.975 13.125C24.975 14.8458 24.3509 16.2972 23.1028 17.479C21.8547 18.6608 20.3204 19.2512 18.5 19.25ZM18.5 35C15.9408 35 13.5358 34.5403 11.285 33.621C9.03417 32.7017 7.07625 31.4551 5.41125 29.8812C3.74625 28.3062 2.42843 26.4542 1.4578 24.325C0.487167 22.1958 0.00123333 19.9208 0 17.5C0 15.0792 0.485933 12.8042 1.4578 10.675C2.42967 8.54583 3.74748 6.69375 5.41125 5.11875C7.07625 3.54375 9.03417 2.29717 11.285 1.379C13.5358 0.460833 15.9408 0.00116667 18.5 0C21.0592 0 23.4642 0.459667 25.715 1.379C27.9658 2.29833 29.9237 3.54492 31.5887 5.11875C33.2537 6.69375 34.5722 8.54583 35.544 10.675C36.5159 12.8042 37.0012 15.0792 37 17.5C37 19.9208 36.5141 22.1958 35.5422 24.325C34.5703 26.4542 33.2525 28.3062 31.5887 29.8812C29.9237 31.4562 27.9658 32.7034 25.715 33.6227C23.4642 34.5421 21.0592 35.0012 18.5 35ZM18.5 31.5C20.1342 31.5 21.6758 31.2742 23.125 30.8227C24.5742 30.3712 25.9 29.722 27.1025 28.875C25.9 28.0292 24.5742 27.3805 23.125 26.929C21.6758 26.4775 20.1342 26.2512 18.5 26.25C16.8658 26.25 15.3242 26.4763 13.875 26.929C12.4258 27.3817 11.1 28.0303 9.8975 28.875C11.1 29.7208 12.4258 30.3701 13.875 30.8227C15.3242 31.2754 16.8658 31.5012 18.5 31.5ZM18.5 15.75C19.3017 15.75 19.9646 15.5021 20.4887 15.0062C21.0129 14.5104 21.275 13.8833 21.275 13.125C21.275 12.3667 21.0129 11.7396 20.4887 11.2437C19.9646 10.7479 19.3017 10.5 18.5 10.5C17.6983 10.5 17.0354 10.7479 16.5112 11.2437C15.9871 11.7396 15.725 12.3667 15.725 13.125C15.725 13.8833 15.9871 14.5104 16.5112 15.0062C17.0354 15.5021 17.6983 15.75 18.5 15.75Z" fill="#48C7B0"/>
</svg>
