<svg width="29" height="29" viewBox="0 0 29 29" fill="none" xmlns="http://www.w3.org/2000/svg">
<path d="M13.05 15.95V20.3C13.05 20.7108 13.1892 21.0554 13.4676 21.3338C13.746 21.6122 14.0901 21.751 14.5 21.75C14.9108 21.75 15.2555 21.6108 15.5339 21.3324C15.8123 21.054 15.951 20.7099 15.95 20.3V15.95H20.3C20.7108 15.95 21.0554 15.8108 21.3338 15.5324C21.6122 15.254 21.751 14.9099 21.75 14.5C21.75 14.0892 21.6108 13.745 21.3324 13.4676C21.054 13.1902 20.7099 13.051 20.3 13.05H15.95V8.7C15.95 8.28917 15.8108 7.94503 15.5324 7.6676C15.254 7.39017 14.9099 7.25097 14.5 7.25C14.0892 7.25 13.745 7.3892 13.4676 7.6676C13.1902 7.946 13.051 8.29013 13.05 8.7V13.05H8.7C8.28917 13.05 7.94503 13.1892 7.6676 13.4676C7.39017 13.746 7.25097 14.0901 7.25 14.5C7.25 14.9108 7.3892 15.2555 7.6676 15.5339C7.946 15.8123 8.29013 15.951 8.7 15.95H13.05ZM14.5 29C12.4942 29 10.6092 28.6191 8.845 27.8574C7.08083 27.0957 5.54625 26.0628 4.24125 24.7588C2.93625 23.4538 1.90337 21.9192 1.1426 20.155C0.381833 18.3908 0.000966667 16.5058 0 14.5C0 12.4942 0.380867 10.6092 1.1426 8.845C1.90433 7.08083 2.93722 5.54625 4.24125 4.24125C5.54625 2.93625 7.08083 1.90337 8.845 1.1426C10.6092 0.381833 12.4942 0.000966667 14.5 0C16.5058 0 18.3908 0.380867 20.155 1.1426C21.9192 1.90433 23.4538 2.93722 24.7588 4.24125C26.0638 5.54625 27.0971 7.08083 27.8588 8.845C28.6206 10.6092 29.001 12.4942 29 14.5C29 16.5058 28.6191 18.3908 27.8574 20.155C27.0957 21.9192 26.0628 23.4538 24.7588 24.7588C23.4538 26.0638 21.9192 27.0971 20.155 27.8588C18.3908 28.6206 16.5058 29.001 14.5 29Z" fill="#48C7B0"/>
</svg>
