<svg width="38" height="38" viewBox="0 0 38 38" fill="none" xmlns="http://www.w3.org/2000/svg">
<path d="M24.7687 1.00013L24.7732 1.00012C26.3093 0.993296 27.8316 1.28967 29.2529 1.87226C30.6743 2.45485 31.9667 3.3122 33.0561 4.39518C34.1455 5.47815 35.0104 6.76546 35.6014 8.18332C36.1924 9.60119 36.4977 11.1217 36.5 12.6578V24.8424C36.4954 27.9328 35.2657 30.8954 33.0805 33.0806C30.8952 35.2659 27.9327 36.4956 24.8423 36.5001H12.6577C9.56731 36.4956 6.60477 35.2659 4.41951 33.0806C2.23442 30.8955 1.00476 27.9333 1 24.8431V12.6571C1.00476 9.56698 2.23442 6.60473 4.41951 4.41964C6.60459 2.23457 9.5668 1.0049 12.6569 1.00012L24.7687 1.00013ZM12.324 28.4491C12.7929 27.9803 13.0563 27.3444 13.0563 26.6814V17.1189C13.0563 16.4558 12.7929 15.8199 12.324 15.3511C11.8552 14.8823 11.2193 14.6189 10.5563 14.6189C9.89321 14.6189 9.25732 14.8823 8.78848 15.3511C8.31964 15.82 8.05625 16.4558 8.05625 17.1189V26.6814C8.05625 27.3444 8.31964 27.9803 8.78848 28.4491C9.25732 28.918 9.89321 29.1814 10.5563 29.1814C11.2193 29.1814 11.8552 28.918 12.324 28.4491ZM21.2097 27.6381C21.3353 27.3348 21.4 27.0097 21.4 26.6814V10.8376C21.4 10.1746 21.1366 9.5387 20.6678 9.06986C20.1989 8.60102 19.563 8.33763 18.9 8.33763C18.237 8.33763 17.6011 8.60102 17.1322 9.06986C16.6634 9.5387 16.4 10.1746 16.4 10.8376V26.6814C16.4 27.0097 16.4647 27.3348 16.5903 27.6381C16.7159 27.9414 16.9001 28.217 17.1322 28.4491C17.3644 28.6813 17.64 28.8654 17.9433 28.9911C18.2466 29.1167 18.5717 29.1814 18.9 29.1814C19.2283 29.1814 19.5534 29.1167 19.8567 28.9911C20.16 28.8654 20.4356 28.6813 20.6678 28.4491C20.8999 28.217 21.0841 27.9414 21.2097 27.6381ZM28.5615 28.4491C29.0304 27.9803 29.2938 27.3444 29.2938 26.6814V14.6626C29.2938 13.9996 29.0304 13.3637 28.5615 12.8949C28.0927 12.426 27.4568 12.1626 26.7938 12.1626C26.1307 12.1626 25.4948 12.426 25.026 12.8949C24.5571 13.3637 24.2937 13.9996 24.2937 14.6626V26.6814C24.2937 27.3444 24.5571 27.9803 25.026 28.4491C25.4948 28.918 26.1307 29.1814 26.7938 29.1814C27.4568 29.1814 28.0927 28.918 28.5615 28.4491Z" fill="#6CD297" stroke="#6C6C6C" stroke-width="2"/>
</svg>
