<svg width="42" height="41" viewBox="0 0 42 41" fill="none" xmlns="http://www.w3.org/2000/svg">
<circle cx="21" cy="20.5" r="19.5" fill="#C74857" stroke="#6C6C6C" stroke-width="2"/>
<g clip-path="url(#clip0_838_409)">
<path d="M20.2931 16.7428L21.0002 17.4499L21.7073 16.7428L26.1716 12.2785C26.5761 11.8741 27.1246 11.6469 27.6966 11.6469C28.2686 11.6469 28.8172 11.8741 29.2217 12.2785C29.6261 12.683 29.8533 13.2316 29.8533 13.8036C29.8533 14.3729 29.6282 14.919 29.2273 15.3229L24.6908 19.7012L23.9584 20.4081L24.6781 21.1279L29.2217 25.6714C29.6261 26.0759 29.8533 26.6244 29.8533 27.1964C29.8533 27.7684 29.6261 28.317 29.2217 28.7215C28.8172 29.1259 28.2686 29.3531 27.6966 29.3531C27.1273 29.3531 26.5811 29.128 26.1772 28.727L21.7195 24.1111L21.0002 23.3663L20.2809 24.1111L15.8232 28.727C15.4193 29.128 14.8731 29.3531 14.3038 29.3531C13.7318 29.3531 13.1832 29.1259 12.7787 28.7215C12.3743 28.317 12.147 27.7684 12.147 27.1964C12.147 26.6244 12.3743 26.0759 12.7787 25.6714L17.3223 21.1279L18.042 20.4081L17.3096 19.7012L12.7731 15.3229C12.3721 14.919 12.147 14.3729 12.147 13.8036C12.147 13.2316 12.3743 12.683 12.7787 12.2785C13.1832 11.8741 13.7318 11.6469 14.3038 11.6469C14.8758 11.6469 15.4243 11.8741 15.8288 12.2785L20.2931 16.7428Z" fill="white" stroke="#6C6C6C" stroke-width="2"/>
</g>
<defs>
<clipPath id="clip0_838_409">
<rect x="4.5" y="4" width="33" height="33" fill="white"/>
</clipPath>
</defs>
</svg>
