<svg width="41" height="41" viewBox="0 0 41 41" fill="none" xmlns="http://www.w3.org/2000/svg">
<circle cx="20.5" cy="20.5" r="19.5" fill="#92ACF0" stroke="#6C6C6C" stroke-width="2"/>
<rect x="10" y="26.7188" width="25.058" height="6.81053" rx="3" transform="rotate(-45 10 26.7188)" fill="white"/>
<path d="M25.7207 9.71074C26.1753 9.25628 26.7918 9.00098 27.4346 9.00098C28.0774 9.00098 28.6938 9.25628 29.1484 9.71074L32.1483 12.7106C32.3735 12.9358 32.5522 13.203 32.6741 13.4972C32.796 13.7914 32.8587 14.1067 32.8587 14.4251C32.8587 14.7436 32.796 15.0589 32.6741 15.353C32.5522 15.6472 32.3735 15.9145 32.1483 16.1396L17.7331 30.5549L10 31.8591L11.3054 24.126L25.7207 9.71074ZM25.4431 13.4161L28.443 16.416L30.4345 14.4245L27.4346 11.4258L25.4431 13.4161ZM26.7279 18.1311L23.7292 15.1312L13.5672 25.2932L12.9575 28.9016L16.5658 28.2931L26.7279 18.1311Z" fill="#6C6C6C"/>
</svg>
