<svg width="36" height="30" viewBox="0 0 36 30" fill="none" xmlns="http://www.w3.org/2000/svg">
<path d="M4.41288 26.5665V13.9056L2.71541 15.236C2.31934 15.5222 1.89497 15.6366 1.44231 15.5794C0.989649 15.5222 0.621864 15.2933 0.338952 14.8927C0.0560401 14.4921 -0.049769 14.0629 0.0215248 13.6051C0.0928186 13.1474 0.311792 12.7754 0.678446 12.4893L15.9133 0.686695C16.2245 0.457797 16.5572 0.286123 16.9114 0.171674C17.2656 0.0572244 17.626 0 17.9927 0C18.3604 0 18.7214 0.0572244 19.0756 0.171674C19.4298 0.286123 19.762 0.457797 20.0721 0.686695L35.3493 12.4893C35.7171 12.7754 35.9293 13.1474 35.9859 13.6051C36.0424 14.0629 35.9293 14.4921 35.6464 14.8927C35.3634 15.2647 34.9957 15.4793 34.543 15.5365C34.0903 15.5937 33.6801 15.4793 33.3123 15.1931L31.5724 13.9056V26.5665C31.5724 27.5107 31.2403 28.3193 30.576 28.9923C29.9117 29.6652 29.1122 30.0011 28.1775 30H7.80783C6.87422 30 6.07527 29.6641 5.411 28.9923C4.74672 28.3205 4.41402 27.5119 4.41288 26.5665ZM7.80783 26.5665H28.1775V11.2876L17.9927 3.43348L7.80783 11.2876V26.5665ZM11.2028 19.6996C11.6837 19.6996 12.0872 19.5348 12.4131 19.2051C12.739 18.8755 12.9014 18.4681 12.9002 17.9828C12.9002 17.4964 12.7373 17.089 12.4114 16.7605C12.0855 16.432 11.6826 16.2672 11.2028 16.2661C10.7218 16.2661 10.319 16.4309 9.99417 16.7605C9.66939 17.0901 9.50643 17.4976 9.5053 17.9828C9.5053 18.4692 9.66826 18.8773 9.99417 19.2069C10.3201 19.5365 10.723 19.7007 11.2028 19.6996ZM17.9927 19.6996C18.4736 19.6996 18.877 19.5348 19.203 19.2051C19.5289 18.8755 19.6913 18.4681 19.6901 17.9828C19.6901 17.4964 19.5272 17.089 19.2013 16.7605C18.8753 16.432 18.4725 16.2672 17.9927 16.2661C17.5117 16.2661 17.1088 16.4309 16.7841 16.7605C16.4593 17.0901 16.2963 17.4976 16.2952 17.9828C16.2952 18.4692 16.4581 18.8773 16.7841 19.2069C17.11 19.5365 17.5128 19.7007 17.9927 19.6996ZM24.7825 19.6996C25.2635 19.6996 25.6669 19.5348 25.9928 19.2051C26.3188 18.8755 26.4811 18.4681 26.48 17.9828C26.48 17.4964 26.3171 17.089 25.9911 16.7605C25.6652 16.432 25.2624 16.2672 24.7825 16.2661C24.3016 16.2661 23.8987 16.4309 23.5739 16.7605C23.2492 17.0901 23.0862 17.4976 23.0851 17.9828C23.0851 18.4692 23.248 18.8773 23.5739 19.2069C23.8999 19.5365 24.3027 19.7007 24.7825 19.6996Z" fill="#A7A7A7"/>
</svg>
