<svg width="34" height="34" viewBox="0 0 34 34" fill="none" xmlns="http://www.w3.org/2000/svg">
<path d="M11.0502 10.1999C11.0502 10.8762 10.7815 11.5248 10.3033 12.003C9.8251 12.4812 9.1765 12.7499 8.5002 12.7499C7.82389 12.7499 7.17529 12.4812 6.69707 12.003C6.21886 11.5248 5.9502 10.8762 5.9502 10.1999C5.9502 9.5236 6.21886 8.875 6.69707 8.39678C7.17529 7.91856 7.82389 7.6499 8.5002 7.6499C9.1765 7.6499 9.8251 7.91856 10.3033 8.39678C10.7815 8.875 11.0502 9.5236 11.0502 10.1999ZM11.0502 16.9999C11.0502 17.6762 10.7815 18.3248 10.3033 18.803C9.8251 19.2812 9.1765 19.5499 8.5002 19.5499C7.82389 19.5499 7.17529 19.2812 6.69707 18.803C6.21886 18.3248 5.9502 17.6762 5.9502 16.9999C5.9502 16.3236 6.21886 15.675 6.69707 15.1968C7.17529 14.7186 7.82389 14.4499 8.5002 14.4499C9.1765 14.4499 9.8251 14.7186 10.3033 15.1968C10.7815 15.675 11.0502 16.3236 11.0502 16.9999ZM11.0502 23.7999C11.0502 24.4762 10.7815 25.1248 10.3033 25.603C9.8251 26.0812 9.1765 26.3499 8.5002 26.3499C7.82389 26.3499 7.17529 26.0812 6.69707 25.603C6.21886 25.1248 5.9502 24.4762 5.9502 23.7999C5.9502 23.1236 6.21886 22.475 6.69707 21.9968C7.17529 21.5186 7.82389 21.2499 8.5002 21.2499C9.1765 21.2499 9.8251 21.5186 10.3033 21.9968C10.7815 22.475 11.0502 23.1236 11.0502 23.7999Z" fill="#A7A7A7"/>
<path fill-rule="evenodd" clip-rule="evenodd" d="M12.75 10.2C12.75 9.74913 12.9291 9.31673 13.2479 8.99792C13.5667 8.67911 13.9991 8.5 14.45 8.5H26.35C26.8009 8.5 27.2333 8.67911 27.5521 8.99792C27.8709 9.31673 28.05 9.74913 28.05 10.2C28.05 10.6509 27.8709 11.0833 27.5521 11.4021C27.2333 11.7209 26.8009 11.9 26.35 11.9H14.45C13.9991 11.9 13.5667 11.7209 13.2479 11.4021C12.9291 11.0833 12.75 10.6509 12.75 10.2ZM12.75 17C12.75 16.5491 12.9291 16.1167 13.2479 15.7979C13.5667 15.4791 13.9991 15.3 14.45 15.3H26.35C26.8009 15.3 27.2333 15.4791 27.5521 15.7979C27.8709 16.1167 28.05 16.5491 28.05 17C28.05 17.4509 27.8709 17.8833 27.5521 18.2021C27.2333 18.5209 26.8009 18.7 26.35 18.7H14.45C13.9991 18.7 13.5667 18.5209 13.2479 18.2021C12.9291 17.8833 12.75 17.4509 12.75 17ZM12.75 23.8C12.75 23.3491 12.9291 22.9167 13.2479 22.5979C13.5667 22.2791 13.9991 22.1 14.45 22.1H26.35C26.8009 22.1 27.2333 22.2791 27.5521 22.5979C27.8709 22.9167 28.05 23.3491 28.05 23.8C28.05 24.2509 27.8709 24.6833 27.5521 25.0021C27.2333 25.3209 26.8009 25.5 26.35 25.5H14.45C13.9991 25.5 13.5667 25.3209 13.2479 25.0021C12.9291 24.6833 12.75 24.2509 12.75 23.8Z" fill="#A7A7A7"/>
</svg>
