<svg width="107" height="86" viewBox="0 0 107 86" fill="none" xmlns="http://www.w3.org/2000/svg">
<path d="M63.0947 16.0896L9.24548 37.4069C13.6523 50.6252 28.5906 57.0553 41.2204 51.1703L52.5775 45.8783L58.0649 57.0677C64.2225 69.6238 79.9286 74.0377 91.7255 66.5274L63.0947 16.0896Z" fill="#6CD297"/>
<path d="M62.503 16.4417L9.70336 22.8072C15.1102 40.77 34.765 50.2222 52.1725 43.2309L53.5713 42.6691L55.255 45.5267C64.1431 60.6121 84.3034 64.3801 98.0402 53.5234L62.503 16.4417Z" stroke="#6C6C6C" stroke-width="3"/>
<path d="M65.7833 32.8389L86.9468 43.827C87.5801 44.1558 87.6751 45.0231 87.128 45.4812L74.1513 56.3465C73.5988 56.8091 72.7531 56.5531 72.5499 55.8617L65.7833 32.8389ZM65.7833 32.8389L55.3326 41.8211C54.5463 42.497 53.3777 41.6768 53.746 40.7076L59.0382 26.7782C59.1488 26.4872 59.3886 26.2642 59.687 26.1752L67.1455 23.9491C67.7845 23.7584 68.4275 24.2346 68.4315 24.9014L68.433 25.1585C68.4337 25.2739 68.4144 25.3885 68.3759 25.4974L65.7833 32.8389Z" stroke="#6C6C6C" stroke-width="2"/>
<path d="M49.2563 27.5126L24.0338 22.3998C23.3345 22.258 22.716 22.8732 22.854 23.5733L26.4162 41.6424C26.5556 42.3496 27.3747 42.6815 27.967 42.2708L49.2563 27.5126ZM49.2563 27.5126L52.204 40.6182C52.4242 41.5973 53.7883 41.678 54.1225 40.7317L58.9825 26.9695C59.0889 26.6681 59.0448 26.334 58.8639 26.0705L54.0607 19.0745C53.6832 18.5247 52.8835 18.4915 52.4617 19.0081L52.2158 19.3093C52.1428 19.3987 52.0858 19.5 52.0474 19.6088L49.2563 27.5126Z" stroke="#6C6C6C" stroke-width="2"/>
</svg>
