<svg width="174" height="90" viewBox="0 0 174 90" fill="none" xmlns="http://www.w3.org/2000/svg">
<path d="M62.8026 18.084L7.89633 36.5087C11.5943 49.9426 26.1696 57.1577 39.0944 51.9523L50.7167 47.2715L55.6016 58.7369C61.083 71.6025 76.5323 76.845 88.7117 69.9724L62.8026 18.084Z" fill="#6CD297"/>
<path d="M62.6326 17.615L9.51526 31.7194C13.9043 44.4063 27.6616 51.2239 40.415 47.0321L52.0328 43.2137L57.5176 54.0629C63.5984 66.0909 78.19 71.036 90.3306 65.1832L62.6326 17.615Z" stroke="#6C6C6C" stroke-width="3"/>
<path d="M62.8241 35.4573L79.4707 46.9215C79.9882 47.2779 80.0526 48.0177 79.6046 48.4582L66.0935 61.7419C65.4819 62.3432 64.4467 61.9461 64.3943 61.09L62.8241 35.4573ZM62.8241 35.4573L54.0633 44.0189C53.2906 44.774 52.0354 43.937 52.4355 42.9334L58.1082 28.7047C58.2065 28.458 58.399 28.2606 58.643 28.156L65.2474 25.3238C65.9715 25.0134 66.7536 25.6232 66.629 26.4011L66.6095 26.5223C66.5966 26.603 66.5738 26.6819 66.5417 26.7571L62.8241 35.4573Z" stroke="#6C6C6C" stroke-width="2"/>
<path d="M49.982 29.8815L30.1599 25.8243C29.5473 25.6989 28.9712 26.1602 28.9596 26.7854L28.6043 45.9709C28.5883 46.8333 29.5984 47.31 30.254 46.7495L49.982 29.8815ZM49.982 29.8815L50.0176 42.7304C50.0206 43.8169 51.5103 44.1197 51.9372 43.1206L58.1636 28.5492C58.2636 28.315 58.2706 28.0514 58.1829 27.8122L55.6882 21.0045C55.4156 20.2606 54.4273 20.1141 53.9505 20.7469L53.8727 20.8503C53.8241 20.9147 53.7836 20.9848 53.7519 21.059L49.982 29.8815Z" stroke="#6C6C6C" stroke-width="2"/>
<path d="M101.401 39V24.336C101.401 23.392 101.609 22.568 102.025 21.864C102.441 21.144 103.009 20.584 103.729 20.184C104.449 19.768 105.257 19.56 106.153 19.56H110.305V22.584H107.641C107.193 22.584 106.777 22.624 106.393 22.704C106.009 22.784 105.705 22.952 105.481 23.208C105.257 23.448 105.145 23.824 105.145 24.336V39H101.401ZM98.7611 28.68V25.656H108.385V28.68H98.7611ZM97.5851 39V35.976H110.017V39H97.5851ZM119.363 39.288C117.939 39.288 116.715 39.008 115.691 38.448C114.667 37.888 113.875 37.088 113.315 36.048C112.771 35.008 112.499 33.768 112.499 32.328C112.499 30.872 112.771 29.632 113.315 28.608C113.875 27.568 114.667 26.768 115.691 26.208C116.715 25.648 117.939 25.368 119.363 25.368C121.507 25.368 123.179 25.984 124.379 27.216C125.595 28.448 126.203 30.152 126.203 32.328C126.203 33.768 125.931 35.008 125.387 36.048C124.843 37.088 124.059 37.888 123.035 38.448C122.011 39.008 120.787 39.288 119.363 39.288ZM119.363 36.264C120.323 36.264 121.075 35.912 121.619 35.208C122.179 34.504 122.459 33.544 122.459 32.328C122.459 31.096 122.179 30.136 121.619 29.448C121.075 28.744 120.323 28.392 119.363 28.392C118.387 28.392 117.619 28.744 117.059 29.448C116.515 30.136 116.243 31.096 116.243 32.328C116.243 33.544 116.515 34.504 117.059 35.208C117.619 35.912 118.387 36.264 119.363 36.264ZM135.164 39.288C133.756 39.288 132.54 39.008 131.516 38.448C130.508 37.888 129.732 37.088 129.188 36.048C128.66 35.008 128.396 33.768 128.396 32.328C128.396 30.856 128.676 29.6 129.236 28.56C129.812 27.52 130.612 26.728 131.636 26.184C132.66 25.64 133.868 25.368 135.26 25.368C136.476 25.368 137.548 25.584 138.476 26.016C139.42 26.448 140.164 27.056 140.708 27.84C141.268 28.608 141.572 29.528 141.62 30.6H137.876C137.748 29.864 137.46 29.32 137.012 28.968C136.58 28.6 135.996 28.416 135.26 28.416C134.652 28.416 134.108 28.568 133.628 28.872C133.164 29.176 132.796 29.616 132.524 30.192C132.268 30.768 132.14 31.48 132.14 32.328C132.14 33.592 132.428 34.568 133.004 35.256C133.596 35.944 134.316 36.288 135.164 36.288C135.66 36.288 136.092 36.2 136.46 36.024C136.844 35.848 137.164 35.6 137.42 35.28C137.676 34.944 137.852 34.568 137.948 34.152H141.692C141.596 35.192 141.26 36.096 140.684 36.864C140.108 37.632 139.348 38.232 138.404 38.664C137.46 39.08 136.38 39.288 135.164 39.288ZM147.749 25.656V33.888C147.749 34.576 147.925 35.128 148.277 35.544C148.629 35.96 149.093 36.168 149.669 36.168C150.325 36.168 150.925 35.952 151.469 35.52C152.029 35.072 152.613 34.312 153.221 33.24L153.749 36.408C153.141 37.448 152.405 38.192 151.541 38.64C150.677 39.072 149.797 39.288 148.901 39.288C147.877 39.288 146.997 39.072 146.261 38.64C145.541 38.208 144.981 37.608 144.581 36.84C144.197 36.072 144.005 35.168 144.005 34.128V25.656H147.749ZM156.653 25.656V39H153.029L152.909 36.624V25.656H156.653ZM166.527 39.288C165.279 39.288 164.183 39.088 163.239 38.688C162.295 38.272 161.559 37.688 161.031 36.936C160.519 36.168 160.255 35.264 160.239 34.224H163.719C163.687 34.96 163.919 35.536 164.415 35.952C164.927 36.368 165.623 36.576 166.503 36.576C167.143 36.576 167.655 36.472 168.039 36.264C168.439 36.04 168.639 35.736 168.639 35.352C168.639 35.016 168.487 34.752 168.183 34.56C167.895 34.352 167.511 34.192 167.031 34.08C166.551 33.952 166.023 33.832 165.447 33.72C164.871 33.592 164.287 33.44 163.695 33.264C163.119 33.088 162.591 32.856 162.111 32.568C161.631 32.264 161.239 31.872 160.935 31.392C160.647 30.896 160.503 30.28 160.503 29.544C160.503 28.696 160.743 27.96 161.223 27.336C161.703 26.712 162.367 26.232 163.215 25.896C164.079 25.544 165.071 25.368 166.191 25.368C167.903 25.368 169.287 25.768 170.343 26.568C171.415 27.352 172.007 28.456 172.119 29.88H168.663C168.631 29.288 168.391 28.84 167.943 28.536C167.495 28.232 166.919 28.08 166.215 28.08C165.623 28.08 165.151 28.184 164.799 28.392C164.447 28.6 164.271 28.912 164.271 29.328C164.271 29.664 164.415 29.928 164.703 30.12C165.007 30.296 165.399 30.44 165.879 30.552C166.359 30.664 166.887 30.768 167.463 30.864C168.055 30.96 168.639 31.096 169.215 31.272C169.791 31.432 170.319 31.656 170.799 31.944C171.279 32.232 171.663 32.616 171.951 33.096C172.255 33.576 172.407 34.192 172.407 34.944C172.407 36.304 171.871 37.368 170.799 38.136C169.743 38.904 168.319 39.288 166.527 39.288ZM121.979 63V54.792C121.979 54.088 121.803 53.528 121.451 53.112C121.099 52.696 120.635 52.488 120.059 52.488C119.403 52.488 118.795 52.712 118.235 53.16C117.691 53.592 117.115 54.344 116.507 55.416L115.979 52.272C116.587 51.216 117.323 50.472 118.187 50.04C119.051 49.592 119.931 49.368 120.827 49.368C121.851 49.368 122.723 49.584 123.443 50.016C124.179 50.448 124.739 51.056 125.122 51.84C125.523 52.608 125.723 53.512 125.723 54.552V63H121.979ZM113.075 63V45.216H116.819V63H113.075ZM133.1 63V49.656H136.844V63H133.1ZM128.78 63V59.976H141.212V63H128.78ZM130.46 52.68V49.656H134.972V52.68H130.46ZM132.956 47.88V44.376H136.94V47.88H132.956ZM148.421 63L143.669 49.656H147.581L149.813 56.424L150.629 59.736L151.493 56.424L153.677 49.656H157.469L152.741 63H148.421ZM166.311 63.288C164.871 63.288 163.631 63.008 162.591 62.448C161.567 61.888 160.775 61.088 160.215 60.048C159.655 59.008 159.375 57.768 159.375 56.328C159.375 54.872 159.655 53.624 160.215 52.584C160.775 51.544 161.583 50.752 162.639 50.208C163.711 49.648 164.999 49.368 166.503 49.368C168.855 49.368 170.559 50.04 171.615 51.384C172.687 52.712 173.135 54.544 172.959 56.88H162.351L162.375 54.312H169.143C169.095 53.704 168.823 53.216 168.327 52.848C167.831 52.464 167.215 52.272 166.479 52.272C165.327 52.272 164.479 52.632 163.935 53.352C163.391 54.072 163.119 55.12 163.119 56.496C163.119 57.184 163.239 57.816 163.479 58.392C163.719 58.968 164.071 59.432 164.535 59.784C165.015 60.12 165.607 60.288 166.311 60.288C167.063 60.288 167.695 60.104 168.207 59.736C168.735 59.368 169.055 58.904 169.167 58.344H172.911C172.751 59.864 172.079 61.072 170.895 61.968C169.727 62.848 168.199 63.288 166.311 63.288Z" fill="#6C6C6C"/>
</svg>
