<svg width="173" height="91" viewBox="0 0 173 91" fill="none" xmlns="http://www.w3.org/2000/svg">
<path d="M63.0947 16.0896L9.24548 37.4069C13.6523 50.6252 28.5906 57.0553 41.2204 51.1703L52.5775 45.8783L58.0649 57.0677C64.2225 69.6238 79.9286 74.0377 91.7255 66.5274L63.0947 16.0896Z" fill="#6CD297"/>
<path d="M62.503 16.4417L9.70336 22.8072C15.1102 40.77 34.765 50.2222 52.1725 43.2309L53.5713 42.6691L55.255 45.5267C64.1431 60.6121 84.3034 64.3801 98.0402 53.5234L62.503 16.4417Z" stroke="#6C6C6C" stroke-width="3"/>
<path d="M65.7833 32.8389L86.9468 43.827C87.5801 44.1558 87.6751 45.0231 87.128 45.4812L74.1513 56.3465C73.5988 56.8091 72.7531 56.5531 72.5499 55.8617L65.7833 32.8389ZM65.7833 32.8389L55.3326 41.8211C54.5463 42.497 53.3777 41.6768 53.746 40.7076L59.0382 26.7782C59.1488 26.4872 59.3886 26.2642 59.687 26.1752L67.1455 23.9491C67.7845 23.7584 68.4275 24.2346 68.4315 24.9014L68.433 25.1585C68.4337 25.2739 68.4144 25.3885 68.3759 25.4974L65.7833 32.8389Z" stroke="#6C6C6C" stroke-width="2"/>
<path d="M49.2563 27.5126L24.0338 22.3998C23.3345 22.258 22.716 22.8732 22.854 23.5733L26.4162 41.6424C26.5556 42.3496 27.3747 42.6815 27.967 42.2708L49.2563 27.5126ZM49.2563 27.5126L52.204 40.6182C52.4242 41.5973 53.7883 41.678 54.1225 40.7317L58.9825 26.9695C59.0889 26.6681 59.0448 26.334 58.8639 26.0705L54.0607 19.0745C53.6832 18.5247 52.8835 18.4915 52.4617 19.0081L52.2158 19.3093C52.1428 19.3987 52.0858 19.5 52.0474 19.6088L49.2563 27.5126Z" stroke="#6C6C6C" stroke-width="2"/>
<path d="M100.401 41V26.336C100.401 25.392 100.609 24.568 101.025 23.864C101.441 23.144 102.009 22.584 102.729 22.184C103.449 21.768 104.257 21.56 105.153 21.56H109.305V24.584H106.641C106.193 24.584 105.777 24.624 105.393 24.704C105.009 24.784 104.705 24.952 104.481 25.208C104.257 25.448 104.145 25.824 104.145 26.336V41H100.401ZM97.7611 30.68V27.656H107.385V30.68H97.7611ZM96.5851 41V37.976H109.017V41H96.5851ZM118.363 41.288C116.939 41.288 115.715 41.008 114.691 40.448C113.667 39.888 112.875 39.088 112.315 38.048C111.771 37.008 111.499 35.768 111.499 34.328C111.499 32.872 111.771 31.632 112.315 30.608C112.875 29.568 113.667 28.768 114.691 28.208C115.715 27.648 116.939 27.368 118.363 27.368C120.507 27.368 122.179 27.984 123.379 29.216C124.595 30.448 125.203 32.152 125.203 34.328C125.203 35.768 124.931 37.008 124.387 38.048C123.843 39.088 123.059 39.888 122.035 40.448C121.011 41.008 119.787 41.288 118.363 41.288ZM118.363 38.264C119.323 38.264 120.075 37.912 120.619 37.208C121.179 36.504 121.459 35.544 121.459 34.328C121.459 33.096 121.179 32.136 120.619 31.448C120.075 30.744 119.323 30.392 118.363 30.392C117.387 30.392 116.619 30.744 116.059 31.448C115.515 32.136 115.243 33.096 115.243 34.328C115.243 35.544 115.515 36.504 116.059 37.208C116.619 37.912 117.387 38.264 118.363 38.264ZM134.164 41.288C132.756 41.288 131.54 41.008 130.516 40.448C129.508 39.888 128.732 39.088 128.188 38.048C127.66 37.008 127.396 35.768 127.396 34.328C127.396 32.856 127.676 31.6 128.236 30.56C128.812 29.52 129.612 28.728 130.636 28.184C131.66 27.64 132.868 27.368 134.26 27.368C135.476 27.368 136.548 27.584 137.476 28.016C138.42 28.448 139.164 29.056 139.708 29.84C140.268 30.608 140.572 31.528 140.62 32.6H136.876C136.748 31.864 136.46 31.32 136.012 30.968C135.58 30.6 134.996 30.416 134.26 30.416C133.652 30.416 133.108 30.568 132.628 30.872C132.164 31.176 131.796 31.616 131.524 32.192C131.268 32.768 131.14 33.48 131.14 34.328C131.14 35.592 131.428 36.568 132.004 37.256C132.596 37.944 133.316 38.288 134.164 38.288C134.66 38.288 135.092 38.2 135.46 38.024C135.844 37.848 136.164 37.6 136.42 37.28C136.676 36.944 136.852 36.568 136.948 36.152H140.692C140.596 37.192 140.26 38.096 139.684 38.864C139.108 39.632 138.348 40.232 137.404 40.664C136.46 41.08 135.38 41.288 134.164 41.288ZM146.749 27.656V35.888C146.749 36.576 146.925 37.128 147.277 37.544C147.629 37.96 148.093 38.168 148.669 38.168C149.325 38.168 149.925 37.952 150.469 37.52C151.029 37.072 151.613 36.312 152.221 35.24L152.749 38.408C152.141 39.448 151.405 40.192 150.541 40.64C149.677 41.072 148.797 41.288 147.901 41.288C146.877 41.288 145.997 41.072 145.261 40.64C144.541 40.208 143.981 39.608 143.581 38.84C143.197 38.072 143.005 37.168 143.005 36.128V27.656H146.749ZM155.653 27.656V41H152.029L151.909 38.624V27.656H155.653ZM165.527 41.288C164.279 41.288 163.183 41.088 162.239 40.688C161.295 40.272 160.559 39.688 160.031 38.936C159.519 38.168 159.255 37.264 159.239 36.224H162.719C162.687 36.96 162.919 37.536 163.415 37.952C163.927 38.368 164.623 38.576 165.503 38.576C166.143 38.576 166.655 38.472 167.039 38.264C167.439 38.04 167.639 37.736 167.639 37.352C167.639 37.016 167.487 36.752 167.183 36.56C166.895 36.352 166.511 36.192 166.031 36.08C165.551 35.952 165.023 35.832 164.447 35.72C163.871 35.592 163.287 35.44 162.695 35.264C162.119 35.088 161.591 34.856 161.111 34.568C160.631 34.264 160.239 33.872 159.935 33.392C159.647 32.896 159.503 32.28 159.503 31.544C159.503 30.696 159.743 29.96 160.223 29.336C160.703 28.712 161.367 28.232 162.215 27.896C163.079 27.544 164.071 27.368 165.191 27.368C166.903 27.368 168.287 27.768 169.343 28.568C170.415 29.352 171.007 30.456 171.119 31.88H167.663C167.631 31.288 167.391 30.84 166.943 30.536C166.495 30.232 165.919 30.08 165.215 30.08C164.623 30.08 164.151 30.184 163.799 30.392C163.447 30.6 163.271 30.912 163.271 31.328C163.271 31.664 163.415 31.928 163.703 32.12C164.007 32.296 164.399 32.44 164.879 32.552C165.359 32.664 165.887 32.768 166.463 32.864C167.055 32.96 167.639 33.096 168.215 33.272C168.791 33.432 169.319 33.656 169.799 33.944C170.279 34.232 170.663 34.616 170.951 35.096C171.255 35.576 171.407 36.192 171.407 36.944C171.407 38.304 170.871 39.368 169.799 40.136C168.743 40.904 167.319 41.288 165.527 41.288ZM120.979 65V56.792C120.979 56.088 120.803 55.528 120.451 55.112C120.099 54.696 119.635 54.488 119.059 54.488C118.403 54.488 117.795 54.712 117.235 55.16C116.691 55.592 116.115 56.344 115.507 57.416L114.979 54.272C115.587 53.216 116.323 52.472 117.187 52.04C118.051 51.592 118.931 51.368 119.827 51.368C120.851 51.368 121.723 51.584 122.443 52.016C123.179 52.448 123.739 53.056 124.122 53.84C124.523 54.608 124.723 55.512 124.723 56.552V65H120.979ZM112.075 65V47.216H115.819V65H112.075ZM132.1 65V51.656H135.844V65H132.1ZM127.78 65V61.976H140.212V65H127.78ZM129.46 54.68V51.656H133.972V54.68H129.46ZM131.956 49.88V46.376H135.94V49.88H131.956ZM147.421 65L142.669 51.656H146.581L148.813 58.424L149.629 61.736L150.493 58.424L152.677 51.656H156.469L151.741 65H147.421ZM165.311 65.288C163.871 65.288 162.631 65.008 161.591 64.448C160.567 63.888 159.775 63.088 159.215 62.048C158.655 61.008 158.375 59.768 158.375 58.328C158.375 56.872 158.655 55.624 159.215 54.584C159.775 53.544 160.583 52.752 161.639 52.208C162.711 51.648 163.999 51.368 165.503 51.368C167.855 51.368 169.559 52.04 170.615 53.384C171.687 54.712 172.135 56.544 171.959 58.88H161.351L161.375 56.312H168.143C168.095 55.704 167.823 55.216 167.327 54.848C166.831 54.464 166.215 54.272 165.479 54.272C164.327 54.272 163.479 54.632 162.935 55.352C162.391 56.072 162.119 57.12 162.119 58.496C162.119 59.184 162.239 59.816 162.479 60.392C162.719 60.968 163.071 61.432 163.535 61.784C164.015 62.12 164.607 62.288 165.311 62.288C166.063 62.288 166.695 62.104 167.207 61.736C167.735 61.368 168.055 60.904 168.167 60.344H171.911C171.751 61.864 171.079 63.072 169.895 63.968C168.727 64.848 167.199 65.288 165.311 65.288Z" fill="#6C6C6C"/>
</svg>
