<svg width="104" height="90" viewBox="0 0 104 90" fill="none" xmlns="http://www.w3.org/2000/svg">
<path d="M62.8026 18.084L7.89633 36.5087C11.5943 49.9426 26.1696 57.1577 39.0944 51.9523L50.7167 47.2715L55.6016 58.7369C61.083 71.6025 76.5323 76.845 88.7117 69.9724L62.8026 18.084Z" fill="#6CD297"/>
<path d="M62.6326 17.615L9.51526 31.7194C13.9043 44.4063 27.6616 51.2239 40.415 47.0321L52.0328 43.2137L57.5176 54.0629C63.5984 66.0909 78.19 71.036 90.3306 65.1832L62.6326 17.615Z" stroke="white" stroke-opacity="0.7" stroke-width="3"/>
<path d="M62.8241 35.4573L79.4707 46.9215C79.9882 47.2779 80.0526 48.0177 79.6046 48.4582L66.0935 61.7419C65.4819 62.3432 64.4467 61.9461 64.3943 61.09L62.8241 35.4573ZM62.8241 35.4573L54.0633 44.0189C53.2906 44.774 52.0354 43.937 52.4355 42.9334L58.1082 28.7047C58.2065 28.458 58.399 28.2606 58.643 28.156L65.2474 25.3238C65.9715 25.0134 66.7536 25.6232 66.629 26.4011L66.6095 26.5223C66.5966 26.603 66.5738 26.6819 66.5417 26.7571L62.8241 35.4573Z" stroke="white" stroke-opacity="0.7" stroke-width="2"/>
<path d="M49.982 29.8815L30.1599 25.8243C29.5473 25.6989 28.9712 26.1602 28.9596 26.7854L28.6043 45.9709C28.5883 46.8333 29.5984 47.31 30.254 46.7495L49.982 29.8815ZM49.982 29.8815L50.0176 42.7304C50.0206 43.8169 51.5103 44.1197 51.9372 43.1206L58.1636 28.5492C58.2636 28.315 58.2706 28.0514 58.1829 27.8122L55.6882 21.0045C55.4156 20.2606 54.4273 20.1141 53.9505 20.7469L53.8727 20.8503C53.8241 20.9147 53.7836 20.9848 53.7519 21.059L49.982 29.8815Z" stroke="white" stroke-opacity="0.7" stroke-width="2"/>
</svg>
