<svg width="29" height="29" viewBox="0 0 29 29" fill="none" xmlns="http://www.w3.org/2000/svg">
<path d="M25.7778 9.10397e-07C26.6639 9.87864e-07 27.4222 0.315239 28.0527 0.94572C28.6832 1.5762 28.9989 2.33504 29 3.22222L29 25.7778C29 26.6639 28.6842 27.4222 28.0527 28.0527C27.4211 28.6831 26.6628 28.9989 25.7778 29L14.5 29L14.5 25.7778L25.7778 25.7778L25.7778 3.22222L14.5 3.22222L14.5 -7.55375e-08L25.7778 9.10397e-07ZM8.05556 6.44444L10.2708 8.78055L6.1625 12.8889L19.3333 12.8889L19.3333 16.1111L6.1625 16.1111L10.2708 20.2194L8.05556 22.5556L3.13956e-07 14.5L8.05556 6.44444Z" fill="#48C7B0"/>
</svg>
