<svg width="24" height="24" viewBox="0 0 24 24" fill="none" xmlns="http://www.w3.org/2000/svg">
<path d="M12.4988 8.86506V0.507596C14.953 0.614148 17.3098 1.50404 19.223 3.04845C21.1664 4.61731 22.5463 6.77629 23.1542 9.19905C23.762 11.6218 23.5648 14.1766 22.5922 16.4773C21.6196 18.778 19.9246 20.6995 17.7634 21.9513C15.6022 23.2031 13.0923 23.7173 10.613 23.416C8.13377 23.1148 5.81995 22.0145 4.02133 20.2815C2.22271 18.5485 1.03705 16.277 0.643609 13.8103C0.256362 11.3824 0.657286 8.89547 1.78582 6.71368L9.03256 10.8726C8.80246 11.4787 8.76339 12.1409 8.92096 12.7702C9.08072 13.4082 9.43473 13.9808 9.93404 14.4088C10.4334 14.8369 11.0533 15.0992 11.7082 15.1595C12.3631 15.2198 13.0205 15.0752 13.5896 14.7455C14.1587 14.4159 14.6113 13.9176 14.8849 13.3195C15.1585 12.7214 15.2395 12.0531 15.1168 11.407C14.9941 10.7608 14.6737 10.1688 14.1999 9.71264C13.7326 9.2628 13.1389 8.96711 12.4988 8.86506ZM12.3988 0.00357729L12.3988 0.00340126L12.3988 0.00357729Z" fill="#6CD297" fill-opacity="0.25" stroke="#6C6C6C"/>
<path d="M11.6555 20.7855C10.3731 20.7429 9.11597 20.4232 7.97122 19.8492L10.8194 14.9415C11.227 15.0967 11.6626 15.1663 12.0986 15.1459C12.5432 15.125 12.9784 15.011 13.3758 14.8112C13.7733 14.6114 14.1241 14.3303 14.4051 13.9861C14.6861 13.6419 14.8911 13.2423 15.0064 12.8136L15.0066 12.8131C15.1213 12.3846 15.1441 11.9368 15.0733 11.4989C15.0026 11.061 14.8399 10.643 14.5961 10.2721C14.3522 9.90118 14.0327 9.58574 13.6585 9.34619C13.2916 9.11133 12.8801 8.95453 12.4498 8.88541V3.22004C13.7308 3.29215 14.981 3.64076 16.1135 4.24214C17.2816 4.86243 18.2945 5.73573 19.0776 6.79739C19.8607 7.85903 20.394 9.08195 20.6382 10.3758C20.8824 11.6696 20.8314 13.0015 20.4889 14.2732C20.1464 15.5448 19.5212 16.7239 18.6591 17.7233C17.7971 18.7226 16.7202 19.5168 15.508 20.0469C14.2957 20.5769 12.9791 20.8294 11.6555 20.7855Z" fill="#6CD297" stroke="#6C6C6C"/>
</svg>
