<svg width="37" height="37" viewBox="0 0 37 37" fill="none" xmlns="http://www.w3.org/2000/svg">
<path d="M4.02197 4.02197H26.3915C31.3621 4.02197 35.3915 8.05141 35.3915 13.022V35.3915H4.02197V4.02197Z" fill="#6CD297"/>
<rect x="9" y="21" width="18" height="13" fill="white"/>
<path fill-rule="evenodd" clip-rule="evenodd" d="M5.55 3.7C5.05935 3.7 4.58879 3.89491 4.24185 4.24185C3.89491 4.58879 3.7 5.05935 3.7 5.55V31.45C3.7 31.9407 3.89491 32.4112 4.24185 32.7581C4.5888 33.1051 5.05935 33.3 5.55 33.3H31.45C31.9406 33.3 32.4112 33.1051 32.7581 32.7581C33.1051 32.4112 33.3 31.9406 33.3 31.45V12.5955C33.2903 12.1115 33.0912 11.6504 32.7452 11.3113L32.7318 11.2982L25.6886 4.25488C25.3496 3.90891 24.8886 3.70975 24.4046 3.7H5.55ZM1.62556 1.62556C2.66638 0.58473 4.07805 0 5.55 0H24.42L24.4463 0.000187677C25.9068 0.0209902 27.3001 0.616677 28.3241 1.65782L35.3423 8.67604C36.3834 9.70006 36.979 11.0932 36.9998 12.5537L37 12.58V31.45C37 32.922 36.4153 34.3336 35.3744 35.3744C34.3336 36.4153 32.922 37 31.45 37H5.55C4.07805 37 2.66638 36.4153 1.62556 35.3744C0.58473 34.3336 0 32.922 0 31.45V5.55C0 4.07805 0.58473 2.66638 1.62556 1.62556Z" fill="#6C6C6C"/>
<path fill-rule="evenodd" clip-rule="evenodd" d="M9.11607 0C10.1526 0 10.9929 0.828273 10.9929 1.85V9.25H24.1306C25.1671 9.25 26.0074 10.0783 26.0074 11.1C26.0074 12.1217 25.1671 12.95 24.1306 12.95H10.9929C9.99736 12.95 9.04261 12.5602 8.33867 11.8663C7.63473 11.1724 7.23926 10.2313 7.23926 9.25V1.85C7.23926 0.828273 8.07953 0 9.11607 0ZM8.33867 19.5837C9.04261 18.8898 9.99736 18.5 10.9929 18.5H26.0074C27.0029 18.5 27.9576 18.8898 28.6616 19.5837C29.3655 20.2776 29.761 21.2187 29.761 22.2V35.15C29.761 36.1717 28.9207 37 27.8842 37C26.8477 37 26.0074 36.1717 26.0074 35.15V22.2H10.9929L10.9929 35.15C10.9929 36.1717 10.1526 37 9.11607 37C8.07953 37 7.23926 36.1717 7.23926 35.15V22.2C7.23926 21.2187 7.63473 20.2776 8.33867 19.5837Z" fill="#6C6C6C"/>
</svg>
