<svg width="39" height="40" viewBox="0 0 39 40" fill="none" xmlns="http://www.w3.org/2000/svg">
<path d="M33.878 17.8423L33.4368 18.1758L33.4848 18.7269C33.5225 19.1594 33.5412 19.5704 33.5412 20C33.5412 20.4301 33.5224 20.8248 33.4694 21.2303L33.394 21.807L33.8579 22.1577L37.5797 24.9712C37.5808 24.9721 37.582 24.9731 37.5832 24.974C37.9879 25.2895 38.0968 25.8375 37.8455 26.282C37.8449 26.283 37.8443 26.284 37.8437 26.285L34.0975 32.7379L34.0975 32.7379L34.0935 32.745C33.8441 33.1827 33.3065 33.359 32.8533 33.1625L32.8533 33.1625L32.8444 33.1587L28.5325 31.3387L28.0229 31.1236L27.5698 31.4411C26.8711 31.9307 26.1403 32.3598 25.3777 32.7122L24.8743 32.9449L24.8051 33.4951L24.2235 38.1151L24.2228 38.1205C24.1632 38.6161 23.7289 39 23.2302 39H15.7497C15.2511 39 14.8168 38.6161 14.7571 38.1205L14.7565 38.1151L14.1749 33.4951L14.1056 32.9449L13.6022 32.7122C12.8396 32.3598 12.1089 31.9307 11.4102 31.4411L10.9571 31.1236L10.4474 31.3387L6.13559 33.1587L6.13557 33.1587L6.12666 33.1625C5.67345 33.359 5.13586 33.1827 4.88647 32.745L4.8865 32.745L4.88243 32.7379L1.1362 26.285C1.13564 26.284 1.13508 26.283 1.13451 26.282C0.877533 25.8276 1.00224 25.2691 1.38771 24.9808L1.39181 24.9777L5.12203 22.1577L5.56602 21.822L5.51472 21.2678C5.43726 20.4311 5.43726 19.5889 5.51472 18.7522L5.56602 18.198L5.12203 17.8623L1.39676 15.046C0.991846 14.7304 0.883041 14.1821 1.13482 13.7375L4.8831 7.26091L4.88312 7.26092L4.88647 7.25503C5.13586 6.81731 5.67345 6.64096 6.12666 6.83747L6.12664 6.83751L6.13559 6.84129L10.4474 8.66129L10.9571 8.87643L11.4102 8.55893C12.1089 8.06928 12.8396 7.64017 13.6022 7.28775L14.1056 7.05511L14.1749 6.5049L14.7565 1.8849L14.7565 1.8849L14.7571 1.87947C14.816 1.39003 15.2448 1 15.7698 1H23.2503C23.7489 1 24.1832 1.38389 24.2429 1.87947L24.2429 1.87947L24.2435 1.8849L24.8251 6.5049L24.8944 7.05511L25.3978 7.28775C26.1604 7.64017 26.8911 8.06928 27.5898 8.55893L28.0429 8.87643L28.5526 8.66129L32.8644 6.84131L32.8708 6.83855C33.093 6.74292 33.343 6.73252 33.5726 6.80942C33.802 6.88631 33.9942 7.0448 34.1127 7.25365L34.1127 7.25367L34.1176 7.26207L37.8638 13.715C37.8644 13.716 37.8649 13.717 37.8655 13.718C38.1225 14.1724 37.9978 14.7309 37.6123 15.0192L37.6082 15.0223L33.878 17.8423ZM11.561 20C11.561 24.4149 15.1599 28 19.5802 28C24.0005 28 27.5994 24.4149 27.5994 20C27.5994 15.5851 24.0005 12 19.5802 12C15.1599 12 11.561 15.5851 11.561 20Z" fill="#6CD297" stroke="#6C6C6C" stroke-width="2"/>
</svg>
