<svg width="36" height="36" viewBox="0 0 36 36" fill="none" xmlns="http://www.w3.org/2000/svg">
<path d="M13.0746 36L12.3582 30.24C11.9702 30.09 11.6048 29.91 11.2621 29.7C10.9194 29.49 10.5833 29.265 10.2537 29.025L4.92537 31.275L0 22.725L4.61194 19.215C4.58209 19.005 4.56716 18.8028 4.56716 18.6084V17.3934C4.56716 17.1978 4.58209 16.995 4.61194 16.785L0 13.275L4.92537 4.725L10.2537 6.975C10.5821 6.735 10.9254 6.51 11.2836 6.3C11.6418 6.09 12 5.91 12.3582 5.76L13.0746 0H22.9254L23.6418 5.76C24.0299 5.91 24.3958 6.09 24.7397 6.3C25.0836 6.51 25.4191 6.735 25.7463 6.975L31.0746 4.725L36 13.275L31.3881 16.785C31.4179 16.995 31.4328 17.1978 31.4328 17.3934V18.6066C31.4328 18.8022 31.403 19.005 31.3433 19.215L35.9552 22.725L31.0299 31.275L25.7463 29.025C25.4179 29.265 25.0746 29.49 24.7164 29.7C24.3582 29.91 24 30.09 23.6418 30.24L22.9254 36H13.0746ZM16.209 32.4H19.7463L20.3731 27.63C21.2985 27.39 22.157 27.0378 22.9487 26.5734C23.7403 26.109 24.4639 25.5462 25.1194 24.885L29.5522 26.73L31.2985 23.67L27.4478 20.745C27.597 20.325 27.7015 19.8828 27.7612 19.4184C27.8209 18.954 27.8507 18.4812 27.8507 18C27.8507 17.52 27.8209 17.0478 27.7612 16.5834C27.7015 16.119 27.597 15.6762 27.4478 15.255L31.2985 12.33L29.5522 9.27L25.1194 11.16C24.4627 10.47 23.7391 9.8928 22.9487 9.4284C22.1582 8.964 21.2997 8.6112 20.3731 8.37L19.791 3.6H16.2537L15.6269 8.37C14.7015 8.61 13.8436 8.9628 13.0531 9.4284C12.2627 9.894 11.5385 10.4562 10.8806 11.115L6.44776 9.27L4.70149 12.33L8.55224 15.21C8.40299 15.66 8.29851 16.11 8.23881 16.56C8.17911 17.01 8.14925 17.49 8.14925 18C8.14925 18.48 8.17911 18.945 8.23881 19.395C8.29851 19.845 8.40299 20.295 8.55224 20.745L4.70149 23.67L6.44776 26.73L10.8806 24.84C11.5373 25.53 12.2615 26.1078 13.0531 26.5734C13.8448 27.039 14.7027 27.3912 15.6269 27.63L16.209 32.4ZM18.0896 24.3C19.8209 24.3 21.2985 23.685 22.5224 22.455C23.7463 21.225 24.3582 19.74 24.3582 18C24.3582 16.26 23.7463 14.775 22.5224 13.545C21.2985 12.315 19.8209 11.7 18.0896 11.7C16.3284 11.7 14.843 12.315 13.6334 13.545C12.4239 14.775 11.8197 16.26 11.8209 18C11.8209 19.74 12.4257 21.225 13.6352 22.455C14.8448 23.685 16.3296 24.3 18.0896 24.3Z" fill="#A7A7A7"/>
</svg>
