<svg width="401" height="104" viewBox="0 0 401 104" fill="none" xmlns="http://www.w3.org/2000/svg">
<path d="M334.123 36.4431L337.639 47.4942H337.774L341.296 36.4431H344.705L339.691 50.9885H335.728L330.707 36.4431H334.123ZM346.399 50.9885V40.0794H349.425V50.9885H346.399ZM347.919 38.6732C347.469 38.6732 347.083 38.524 346.761 38.2257C346.444 37.9227 346.286 37.5605 346.286 37.1391C346.286 36.7224 346.444 36.3649 346.761 36.0667C347.083 35.7636 347.469 35.6121 347.919 35.6121C348.369 35.6121 348.753 35.7636 349.07 36.0667C349.392 36.3649 349.553 36.7224 349.553 37.1391C349.553 37.5605 349.392 37.9227 349.07 38.2257C348.753 38.524 348.369 38.6732 347.919 38.6732ZM356.82 51.2016C355.698 51.2016 354.732 50.9743 353.922 50.5198C353.117 50.0605 352.497 49.4118 352.062 48.5738C351.626 47.7309 351.408 46.7343 351.408 45.5837C351.408 44.4615 351.626 43.4767 352.062 42.6292C352.497 41.7816 353.11 41.1211 353.901 40.6476C354.697 40.1741 355.629 39.9374 356.699 39.9374C357.419 39.9374 358.089 40.0534 358.709 40.2854C359.334 40.5127 359.879 40.8559 360.343 41.3152C360.812 41.7745 361.176 42.3522 361.437 43.0482C361.697 43.7395 361.827 44.5491 361.827 45.4772V46.3081H352.616V44.4331H358.979C358.979 43.9975 358.884 43.6116 358.695 43.2755C358.506 42.9393 358.243 42.6765 357.907 42.4871C357.575 42.293 357.189 42.1959 356.749 42.1959C356.29 42.1959 355.883 42.3024 355.527 42.5155C355.177 42.7238 354.902 43.0056 354.704 43.3607C354.505 43.7111 354.403 44.1017 354.398 44.5326V46.3152C354.398 46.855 354.498 47.3214 354.697 47.7144C354.9 48.1074 355.187 48.4104 355.556 48.6235C355.925 48.8365 356.363 48.9431 356.87 48.9431C357.206 48.9431 357.514 48.8957 357.793 48.801C358.072 48.7063 358.312 48.5643 358.51 48.3749C358.709 48.1855 358.861 47.9535 358.965 47.6789L361.763 47.8635C361.621 48.5359 361.33 49.123 360.89 49.6249C360.454 50.122 359.891 50.5103 359.199 50.7897C358.513 51.0643 357.72 51.2016 356.82 51.2016ZM365.875 50.9885L362.907 40.0794H365.968L367.658 47.409H367.758L369.519 40.0794H372.523L374.313 47.3664H374.405L376.067 40.0794H379.121L376.16 50.9885H372.956L371.081 44.1277H370.947L369.072 50.9885H365.875Z" fill="#D9D9D9"/>
<circle cx="355.008" cy="46.3255" r="40.1587" stroke="#D9D9D9" stroke-width="11"/>
<path d="M185.262 57.0791H180.106V42.5336H185.304C186.767 42.5336 188.027 42.8248 189.083 43.4072C190.139 43.9849 190.951 44.8158 191.519 45.9001C192.092 46.9844 192.378 48.2818 192.378 49.7922C192.378 51.3073 192.092 52.6094 191.519 53.6984C190.951 54.7874 190.134 55.6231 189.069 56.2055C188.008 56.7879 186.739 57.0791 185.262 57.0791ZM183.181 54.4442H185.134C186.043 54.4442 186.808 54.2832 187.428 53.9612C188.053 53.6345 188.522 53.1302 188.834 52.4484C189.151 51.7619 189.31 50.8765 189.31 49.7922C189.31 48.7174 189.151 47.839 188.834 47.1572C188.522 46.4754 188.055 45.9735 187.435 45.6515C186.815 45.3296 186.05 45.1686 185.141 45.1686H183.181V54.4442ZM194.599 57.0791V46.17H197.533V48.0734H197.646C197.845 47.3963 198.179 46.885 198.648 46.5393C199.117 46.1889 199.656 46.0138 200.267 46.0138C200.419 46.0138 200.582 46.0232 200.757 46.0422C200.932 46.0611 201.086 46.0872 201.219 46.1203V48.805C201.077 48.7623 200.88 48.7245 200.629 48.6913C200.378 48.6582 200.149 48.6416 199.94 48.6416C199.495 48.6416 199.098 48.7387 198.747 48.9328C198.402 49.1222 198.127 49.3873 197.923 49.7282C197.724 50.0692 197.625 50.4622 197.625 50.9072V57.0791H194.599ZM205.581 57.2851C204.885 57.2851 204.265 57.1643 203.721 56.9229C203.176 56.6766 202.745 56.3144 202.428 55.8362C202.115 55.3532 201.959 54.7519 201.959 54.0322C201.959 53.4262 202.07 52.9172 202.293 52.5052C202.516 52.0933 202.819 51.7619 203.202 51.5109C203.586 51.26 204.021 51.0706 204.509 50.9427C205.001 50.8149 205.517 50.7249 206.057 50.6729C206.692 50.6066 207.203 50.545 207.591 50.4882C207.98 50.4266 208.261 50.3367 208.436 50.2183C208.612 50.0999 208.699 49.9247 208.699 49.6927V49.6501C208.699 49.2003 208.557 48.8523 208.273 48.6061C207.994 48.3599 207.596 48.2368 207.08 48.2368C206.535 48.2368 206.102 48.3575 205.78 48.599C205.458 48.8357 205.245 49.134 205.141 49.4939L202.343 49.2666C202.485 48.6037 202.764 48.0308 203.181 47.5479C203.597 47.0602 204.135 46.6861 204.793 46.4257C205.456 46.1605 206.223 46.028 207.094 46.028C207.7 46.028 208.28 46.099 208.834 46.241C209.393 46.3831 209.888 46.6032 210.319 46.9015C210.754 47.1998 211.097 47.5834 211.348 48.0521C211.599 48.5161 211.725 49.0725 211.725 49.7211V57.0791H208.856V55.5663H208.77C208.595 55.9072 208.361 56.2079 208.067 56.4683C207.774 56.724 207.421 56.9252 207.009 57.072C206.597 57.214 206.121 57.2851 205.581 57.2851ZM206.448 55.197C206.893 55.197 207.286 55.1094 207.627 54.9342C207.968 54.7543 208.235 54.5128 208.429 54.2098C208.624 53.9068 208.721 53.5635 208.721 53.18V52.0223C208.626 52.0838 208.496 52.1407 208.33 52.1927C208.169 52.2401 207.987 52.2851 207.783 52.3277C207.579 52.3656 207.376 52.4011 207.172 52.4342C206.969 52.4626 206.784 52.4887 206.618 52.5123C206.263 52.5644 205.953 52.6473 205.688 52.7609C205.423 52.8746 205.217 53.0284 205.07 53.2226C204.923 53.412 204.85 53.6487 204.85 53.9328C204.85 54.3447 204.999 54.6596 205.297 54.8774C205.6 55.0905 205.984 55.197 206.448 55.197ZM216.224 57.0791L213.255 46.17H216.316L218.007 53.4996H218.106L219.868 46.17H222.872L224.662 53.4569H224.754L226.416 46.17H229.47L226.508 57.0791H223.305L221.43 50.2183H221.295L219.42 57.0791H216.224Z" fill="black"/>
<circle cx="203.618" cy="52.4158" r="40.1587" stroke="#48C7B0" stroke-width="11"/>
<circle cx="203.638" cy="52.4351" r="50.3983" stroke="#48C7B0"/>
<path d="M22.626 54.4692V39.9238H28.3647C29.4679 39.9238 30.4077 40.1345 31.1843 40.5559C31.9608 40.9726 32.5526 41.5526 32.9598 42.2959C33.3718 43.0346 33.5777 43.8869 33.5777 44.8528C33.5777 45.8187 33.3694 46.6709 32.9527 47.4096C32.5361 48.1482 31.9324 48.7235 31.1416 49.1354C30.3557 49.5474 29.404 49.7533 28.2865 49.7533H24.6289V47.2888H27.7894C28.3812 47.2888 28.8689 47.187 29.2524 46.9834C29.6407 46.7751 29.9295 46.4887 30.1189 46.1241C30.313 45.7547 30.4101 45.331 30.4101 44.8528C30.4101 44.3698 30.313 43.9484 30.1189 43.5886C29.9295 43.224 29.6407 42.9422 29.2524 42.7434C28.8642 42.5398 28.3718 42.438 27.7752 42.438H25.7013V54.4692H22.626ZM38.544 39.9238V54.4692H35.5184V39.9238H38.544ZM44.0784 54.6752C43.3824 54.6752 42.7621 54.5545 42.2176 54.313C41.6731 54.0668 41.2423 53.7046 40.925 53.2263C40.6125 52.7434 40.4563 52.1421 40.4563 51.4224C40.4563 50.8163 40.5675 50.3073 40.7901 49.8954C41.0126 49.4834 41.3157 49.152 41.6992 48.9011C42.0827 48.6501 42.5183 48.4607 43.006 48.3329C43.4984 48.205 44.0145 48.1151 44.5543 48.063C45.1888 47.9967 45.7001 47.9351 46.0884 47.8783C46.4766 47.8168 46.7584 47.7268 46.9335 47.6084C47.1087 47.4901 47.1963 47.3149 47.1963 47.0829V47.0403C47.1963 46.5905 47.0543 46.2424 46.7702 45.9962C46.4908 45.75 46.0931 45.6269 45.577 45.6269C45.0325 45.6269 44.5993 45.7476 44.2773 45.9891C43.9553 46.2259 43.7423 46.5242 43.6381 46.884L40.8398 46.6567C40.9818 45.9939 41.2612 45.4209 41.6779 44.938C42.0945 44.4503 42.6319 44.0762 43.2901 43.8158C43.953 43.5507 44.72 43.4181 45.5912 43.4181C46.1973 43.4181 46.7773 43.4891 47.3313 43.6312C47.89 43.7732 48.3848 43.9934 48.8157 44.2917C49.2513 44.59 49.5945 44.9735 49.8455 45.4422C50.0964 45.9063 50.2219 46.4626 50.2219 47.1113V54.4692H47.3526V52.9565H47.2674C47.0922 53.2974 46.8578 53.598 46.5642 53.8584C46.2707 54.1141 45.9179 54.3154 45.506 54.4621C45.0941 54.6042 44.6182 54.6752 44.0784 54.6752ZM44.9449 52.5871C45.39 52.5871 45.783 52.4995 46.1239 52.3244C46.4648 52.1444 46.7323 51.903 46.9264 51.5999C47.1206 51.2969 47.2176 50.9536 47.2176 50.5701V49.4124C47.1229 49.474 46.9927 49.5308 46.827 49.5829C46.666 49.6302 46.4837 49.6752 46.2801 49.7178C46.0765 49.7557 45.8729 49.7912 45.6693 49.8244C45.4657 49.8528 45.2811 49.8788 45.1154 49.9025C44.7603 49.9546 44.4501 50.0374 44.185 50.1511C43.9198 50.2647 43.7139 50.4186 43.5671 50.6127C43.4203 50.8021 43.3469 51.0388 43.3469 51.3229C43.3469 51.7349 43.496 52.0497 43.7943 52.2675C44.0974 52.4806 44.4809 52.5871 44.9449 52.5871ZM55.5948 48.1624V54.4692H52.5692V43.5601H55.4527V45.4849H55.5806C55.822 44.8504 56.2269 44.3485 56.7951 43.9792C57.3632 43.6051 58.0522 43.4181 58.8618 43.4181C59.6194 43.4181 60.2799 43.5838 60.8434 43.9153C61.4068 44.2467 61.8448 44.7202 62.1573 45.3357C62.4698 45.9465 62.626 46.6757 62.626 47.5232V54.4692H59.6005V48.063C59.6052 47.3954 59.4347 46.8745 59.0891 46.5005C58.7434 46.1217 58.2676 45.9323 57.6615 45.9323C57.2543 45.9323 56.8945 46.0199 56.582 46.1951C56.2742 46.3703 56.0327 46.626 55.8576 46.9621C55.6871 47.2936 55.5995 47.6937 55.5948 48.1624Z" fill="black"/>
<circle cx="46.1387" cy="49.806" r="40.1587" stroke="#48C7B0" stroke-width="11"/>
<path d="M128.947 34.5986L124.028 39.5671L132.461 48.0845L124.028 56.6019L128.947 61.5704L142.299 48.0845L128.947 34.5986Z" fill="#48C7B0"/>
<circle cx="120.113" cy="48.9546" r="3.0452" fill="#48C7B0"/>
<circle cx="111.412" cy="48.9546" r="3.0452" fill="#48C7B0"/>
<path d="M128.947 34.5986L124.028 39.5671L132.461 48.0845L124.028 56.6019L128.947 61.5704L142.299 48.0845L128.947 34.5986Z" fill="#48C7B0"/>
<circle cx="120.113" cy="48.9546" r="3.0452" fill="#48C7B0"/>
<path d="M285.558 36.3391L280.639 41.3076L289.072 49.825L280.639 58.3424L285.558 63.3108L298.91 49.825L285.558 36.3391Z" fill="#D9D9D9"/>
<circle cx="276.723" cy="50.6951" r="3.0452" fill="#D9D9D9"/>
<circle cx="268.022" cy="50.6951" r="3.0452" fill="#D9D9D9"/>
<path d="M285.558 36.3391L280.639 41.3076L289.072 49.825L280.639 58.3424L285.558 63.3108L298.91 49.825L285.558 36.3391Z" fill="#D9D9D9"/>
<circle cx="276.723" cy="50.6951" r="3.0452" fill="#D9D9D9"/>
<circle cx="268.022" cy="50.6951" r="3.0452" fill="#D9D9D9"/>
</svg>
