<svg width="407" height="102" viewBox="0 0 407 102" fill="none" xmlns="http://www.w3.org/2000/svg">
<path d="M23.0157 55.7458V41.2004H28.7543C29.8575 41.2004 30.7974 41.4111 31.5739 41.8325C32.3504 42.2492 32.9423 42.8292 33.3495 43.5726C33.7614 44.3112 33.9674 45.1635 33.9674 46.1294C33.9674 47.0953 33.759 47.9476 33.3424 48.6862C32.9257 49.4248 32.322 50.0001 31.5313 50.412C30.7453 50.824 29.7936 51.0299 28.6762 51.0299H25.0185V48.5655H28.179C28.7709 48.5655 29.2586 48.4637 29.6421 48.2601C30.0303 48.0517 30.3192 47.7653 30.5086 47.4007C30.7027 47.0314 30.7998 46.6076 30.7998 46.1294C30.7998 45.6464 30.7027 45.225 30.5086 44.8652C30.3192 44.5006 30.0303 44.2189 29.6421 44.02C29.2538 43.8164 28.7614 43.7146 28.1648 43.7146H26.091V55.7458H23.0157ZM38.9336 41.2004V55.7458H35.9081V41.2004H38.9336ZM44.4681 55.9518C43.7721 55.9518 43.1518 55.8311 42.6073 55.5896C42.0628 55.3434 41.6319 54.9812 41.3147 54.503C41.0022 54.02 40.8459 53.4187 40.8459 52.699C40.8459 52.0929 40.9572 51.5839 41.1797 51.172C41.4023 50.7601 41.7053 50.4286 42.0888 50.1777C42.4723 49.9267 42.908 49.7373 43.3956 49.6095C43.8881 49.4816 44.4042 49.3917 44.9439 49.3396C45.5784 49.2733 46.0898 49.2118 46.478 49.1549C46.8663 49.0934 47.148 49.0034 47.3232 48.8851C47.4984 48.7667 47.586 48.5915 47.586 48.3595V48.3169C47.586 47.8671 47.4439 47.5191 47.1598 47.2728C46.8805 47.0266 46.4828 46.9035 45.9667 46.9035C45.4222 46.9035 44.9889 47.0243 44.6669 47.2657C44.345 47.5025 44.1319 47.8008 44.0277 48.1606L41.2294 47.9333C41.3715 47.2705 41.6508 46.6976 42.0675 46.2146C42.4842 45.7269 43.0216 45.3529 43.6797 45.0924C44.3426 44.8273 45.1097 44.6947 45.9809 44.6947C46.5869 44.6947 47.1669 44.7657 47.7209 44.9078C48.2796 45.0498 48.7744 45.27 49.2053 45.5683C49.6409 45.8666 49.9842 46.2501 50.2351 46.7189C50.4861 47.1829 50.6115 47.7392 50.6115 48.3879V55.7458H47.7422V54.2331H47.657C47.4818 54.574 47.2474 54.8746 46.9539 55.1351C46.6603 55.3907 46.3076 55.592 45.8956 55.7387C45.4837 55.8808 45.0079 55.9518 44.4681 55.9518ZM45.3346 53.8637C45.7796 53.8637 46.1726 53.7762 46.5135 53.601C46.8544 53.421 47.122 53.1796 47.3161 52.8765C47.5102 52.5735 47.6073 52.2302 47.6073 51.8467V50.689C47.5126 50.7506 47.3824 50.8074 47.2167 50.8595C47.0557 50.9068 46.8734 50.9518 46.6698 50.9944C46.4662 51.0323 46.2626 51.0678 46.059 51.101C45.8554 51.1294 45.6707 51.1554 45.505 51.1791C45.1499 51.2312 44.8398 51.314 44.5746 51.4277C44.3095 51.5413 44.1035 51.6952 43.9567 51.8893C43.8099 52.0787 43.7366 52.3155 43.7366 52.5995C43.7366 53.0115 43.8857 53.3263 44.184 53.5441C44.487 53.7572 44.8705 53.8637 45.3346 53.8637ZM55.9844 49.439V55.7458H52.9589V44.8368H55.8424V46.7615H55.9702C56.2117 46.127 56.6165 45.6251 57.1847 45.2558C57.7529 44.8817 58.4418 44.6947 59.2515 44.6947C60.009 44.6947 60.6696 44.8604 61.233 45.1919C61.7964 45.5233 62.2344 45.9968 62.5469 46.6123C62.8594 47.2231 63.0157 47.9523 63.0157 48.7998V55.7458H59.9901V49.3396C59.9948 48.672 59.8244 48.1512 59.4787 47.7771C59.1331 47.3983 58.6572 47.2089 58.0512 47.2089C57.644 47.2089 57.2841 47.2965 56.9716 47.4717C56.6639 47.6469 56.4224 47.9026 56.2472 48.2387C56.0767 48.5702 55.9892 48.9703 55.9844 49.439Z" fill="black"/>
<circle cx="46.5289" cy="51.0826" r="40.1587" stroke="#48C7B0" stroke-width="11"/>
<path d="M185.651 55.7458H180.495V41.2004H185.694C187.157 41.2004 188.417 41.4916 189.472 42.074C190.528 42.6516 191.34 43.4826 191.909 44.5669C192.481 45.6512 192.768 46.9485 192.768 48.4589C192.768 49.9741 192.481 51.2762 191.909 52.3652C191.34 53.4542 190.524 54.2899 189.458 54.8723C188.398 55.4547 187.129 55.7458 185.651 55.7458ZM183.57 53.1109H185.524C186.433 53.1109 187.197 52.9499 187.818 52.628C188.443 52.3012 188.911 51.797 189.224 51.1152C189.541 50.4286 189.7 49.5432 189.7 48.4589C189.7 47.3841 189.541 46.5058 189.224 45.824C188.911 45.1422 188.445 44.6403 187.825 44.3183C187.204 43.9963 186.44 43.8353 185.531 43.8353H183.57V53.1109ZM194.989 55.7458V44.8368H197.922V46.7402H198.036C198.235 46.0631 198.569 45.5517 199.037 45.2061C199.506 44.8557 200.046 44.6805 200.657 44.6805C200.808 44.6805 200.972 44.69 201.147 44.7089C201.322 44.7279 201.476 44.7539 201.608 44.787V47.4717C201.466 47.4291 201.27 47.3912 201.019 47.3581C200.768 47.3249 200.538 47.3083 200.33 47.3083C199.885 47.3083 199.487 47.4054 199.137 47.5995C198.791 47.7889 198.517 48.0541 198.313 48.395C198.114 48.7359 198.015 49.1289 198.015 49.574V55.7458H194.989ZM205.971 55.9518C205.275 55.9518 204.655 55.8311 204.11 55.5896C203.566 55.3434 203.135 54.9812 202.818 54.503C202.505 54.02 202.349 53.4187 202.349 52.699C202.349 52.0929 202.46 51.5839 202.683 51.172C202.905 50.7601 203.208 50.4286 203.592 50.1777C203.975 49.9267 204.411 49.7373 204.899 49.6095C205.391 49.4816 205.907 49.3917 206.447 49.3396C207.081 49.2733 207.593 49.2118 207.981 49.1549C208.369 49.0934 208.651 49.0034 208.826 48.8851C209.001 48.7667 209.089 48.5915 209.089 48.3595V48.3169C209.089 47.8671 208.947 47.5191 208.663 47.2728C208.383 47.0266 207.986 46.9035 207.47 46.9035C206.925 46.9035 206.492 47.0243 206.17 47.2657C205.848 47.5025 205.635 47.8008 205.531 48.1606L202.732 47.9333C202.874 47.2705 203.154 46.6976 203.57 46.2146C203.987 45.7269 204.525 45.3529 205.183 45.0924C205.846 44.8273 206.613 44.6947 207.484 44.6947C208.09 44.6947 208.67 44.7657 209.224 44.9078C209.783 45.0498 210.277 45.27 210.708 45.5683C211.144 45.8666 211.487 46.2501 211.738 46.7189C211.989 47.1829 212.114 47.7392 212.114 48.3879V55.7458H209.245V54.2331H209.16C208.985 54.574 208.75 54.8746 208.457 55.1351C208.163 55.3907 207.811 55.592 207.399 55.7387C206.987 55.8808 206.511 55.9518 205.971 55.9518ZM206.837 53.8637C207.283 53.8637 207.676 53.7762 208.016 53.601C208.357 53.421 208.625 53.1796 208.819 52.8765C209.013 52.5735 209.11 52.2302 209.11 51.8467V50.689C209.016 50.7506 208.885 50.8074 208.72 50.8595C208.559 50.9068 208.376 50.9518 208.173 50.9944C207.969 51.0323 207.766 51.0678 207.562 51.101C207.358 51.1294 207.174 51.1554 207.008 51.1791C206.653 51.2312 206.343 51.314 206.078 51.4277C205.812 51.5413 205.606 51.6952 205.46 51.8893C205.313 52.0787 205.239 52.3155 205.239 52.5995C205.239 53.0115 205.389 53.3263 205.687 53.5441C205.99 53.7572 206.373 53.8637 206.837 53.8637ZM216.614 55.7458L213.645 44.8368H216.706L218.396 52.1663H218.496L220.257 44.8368H223.261L225.051 52.1237H225.144L226.806 44.8368H229.86L226.898 55.7458H223.695L221.82 48.8851H221.685L219.81 55.7458H216.614Z" fill="black"/>
<circle cx="204.009" cy="51.0826" r="40.1587" stroke="#48C7B0" stroke-width="11"/>
<circle cx="111.803" cy="51.972" r="3.0452" fill="#48C7B0"/>
<path d="M129.338 37.616L124.418 42.5844L132.851 51.1018L124.418 59.6192L129.338 64.5877L142.69 51.1018L129.338 37.616Z" fill="#48C7B0"/>
<circle cx="120.504" cy="51.972" r="3.0452" fill="#48C7B0"/>
<path d="M129.338 37.616L124.418 42.5844L132.851 51.1018L124.418 59.6192L129.338 64.5877L142.69 51.1018L129.338 37.616Z" fill="#48C7B0"/>
<circle cx="120.504" cy="51.972" r="3.0452" fill="#48C7B0"/>
<circle cx="111.803" cy="51.972" r="3.0452" fill="#48C7B0"/>
<path d="M285.947 37.616L281.028 42.5844L289.461 51.1018L281.028 59.6192L285.947 64.5877L299.299 51.1018L285.947 37.616Z" fill="#D9D9D9"/>
<circle cx="277.113" cy="51.972" r="3.0452" fill="#D9D9D9"/>
<circle cx="268.413" cy="51.972" r="3.0452" fill="#D9D9D9"/>
<path d="M285.947 37.616L281.028 42.5844L289.461 51.1018L281.028 59.6192L285.947 64.5877L299.299 51.1018L285.947 37.616Z" fill="#48C7B0"/>
<circle cx="277.113" cy="51.972" r="3.0452" fill="#48C7B0"/>
<circle cx="268.413" cy="51.972" r="3.0452" fill="#48C7B0"/>
<path d="M334.514 41.2006L338.029 52.2518H338.164L341.687 41.2006H345.096L340.082 55.7461H336.119L331.097 41.2006H334.514ZM346.79 55.7461V44.837H349.815V55.7461H346.79ZM348.31 43.4308C347.86 43.4308 347.474 43.2816 347.152 42.9833C346.835 42.6803 346.676 42.3181 346.676 41.8967C346.676 41.48 346.835 41.1225 347.152 40.8242C347.474 40.5212 347.86 40.3697 348.31 40.3697C348.76 40.3697 349.143 40.5212 349.46 40.8242C349.782 41.1225 349.943 41.48 349.943 41.8967C349.943 42.3181 349.782 42.6803 349.46 42.9833C349.143 43.2816 348.76 43.4308 348.31 43.4308ZM357.211 55.9592C356.089 55.9592 355.123 55.7319 354.313 55.2773C353.508 54.8181 352.888 54.1694 352.452 53.3313C352.017 52.4885 351.799 51.4918 351.799 50.3413C351.799 49.2191 352.017 48.2343 352.452 47.3867C352.888 46.5392 353.501 45.8787 354.292 45.4052C355.087 44.9317 356.02 44.695 357.09 44.695C357.81 44.695 358.48 44.811 359.1 45.043C359.725 45.2702 360.269 45.6135 360.733 46.0728C361.202 46.5321 361.567 47.1097 361.827 47.8058C362.088 48.497 362.218 49.3067 362.218 50.2347V51.0657H353.006V49.1907H359.37C359.37 48.7551 359.275 48.3692 359.086 48.033C358.896 47.6969 358.634 47.4341 358.297 47.2447C357.966 47.0505 357.58 46.9535 357.14 46.9535C356.68 46.9535 356.273 47.06 355.918 47.2731C355.568 47.4814 355.293 47.7631 355.094 48.1183C354.895 48.4686 354.794 48.8593 354.789 49.2901V51.0728C354.789 51.6126 354.888 52.079 355.087 52.4719C355.291 52.8649 355.577 53.168 355.947 53.381C356.316 53.5941 356.754 53.7006 357.26 53.7006C357.597 53.7006 357.904 53.6533 358.184 53.5586C358.463 53.4639 358.702 53.3219 358.901 53.1325C359.1 52.9431 359.251 52.7111 359.356 52.4364L362.154 52.6211C362.012 53.2934 361.721 53.8806 361.28 54.3825C360.845 54.8796 360.281 55.2679 359.59 55.5472C358.903 55.8219 358.11 55.9592 357.211 55.9592ZM366.266 55.7461L363.297 44.837H366.358L368.049 52.1665H368.148L369.91 44.837H372.914L374.704 52.1239H374.796L376.458 44.837H379.512L376.55 55.7461H373.347L371.472 48.8853H371.337L369.462 55.7461H366.266Z" fill="black"/>
<circle cx="355.399" cy="51.0828" r="40.1587" stroke="#48C7B0" stroke-width="11"/>
<circle cx="355.418" cy="51.1019" r="50.3983" stroke="#48C7B0"/>
</svg>
