<svg width="31" height="31" viewBox="0 0 31 31" fill="none" xmlns="http://www.w3.org/2000/svg">
<path d="M10.0748 9.3001C10.0748 9.91673 9.82985 10.5081 9.39383 10.9441C8.95781 11.3801 8.36643 11.6251 7.7498 11.6251C7.13318 11.6251 6.5418 11.3801 6.10578 10.9441C5.66976 10.5081 5.4248 9.91673 5.4248 9.3001C5.4248 8.68347 5.66976 8.0921 6.10578 7.65607C6.5418 7.22005 7.13318 6.9751 7.7498 6.9751C8.36643 6.9751 8.95781 7.22005 9.39383 7.65607C9.82985 8.0921 10.0748 8.68347 10.0748 9.3001ZM10.0748 15.5001C10.0748 16.1167 9.82985 16.7081 9.39383 17.1441C8.95781 17.5801 8.36643 17.8251 7.7498 17.8251C7.13318 17.8251 6.5418 17.5801 6.10578 17.1441C5.66976 16.7081 5.4248 16.1167 5.4248 15.5001C5.4248 14.8835 5.66976 14.2921 6.10578 13.8561C6.5418 13.4201 7.13318 13.1751 7.7498 13.1751C8.36643 13.1751 8.95781 13.4201 9.39383 13.8561C9.82985 14.2921 10.0748 14.8835 10.0748 15.5001ZM10.0748 21.7001C10.0748 22.3167 9.82985 22.9081 9.39383 23.3441C8.95781 23.7801 8.36643 24.0251 7.7498 24.0251C7.13318 24.0251 6.5418 23.7801 6.10578 23.3441C5.66976 22.9081 5.4248 22.3167 5.4248 21.7001C5.4248 21.0835 5.66976 20.4921 6.10578 20.0561C6.5418 19.6201 7.13318 19.3751 7.7498 19.3751C8.36643 19.3751 8.95781 19.6201 9.39383 20.0561C9.82985 20.4921 10.0748 21.0835 10.0748 21.7001Z" fill="#6CD297" stroke="#6C6C6C"/>
<path fill-rule="evenodd" clip-rule="evenodd" d="M11.625 9.3C11.625 8.88891 11.7883 8.49467 12.079 8.20398C12.3697 7.9133 12.7639 7.75 13.175 7.75H24.025C24.4361 7.75 24.8303 7.9133 25.121 8.20398C25.4117 8.49467 25.575 8.88891 25.575 9.3C25.575 9.71109 25.4117 10.1053 25.121 10.396C24.8303 10.6867 24.4361 10.85 24.025 10.85H13.175C12.7639 10.85 12.3697 10.6867 12.079 10.396C11.7883 10.1053 11.625 9.71109 11.625 9.3ZM11.625 15.5C11.625 15.0889 11.7883 14.6947 12.079 14.404C12.3697 14.1133 12.7639 13.95 13.175 13.95H24.025C24.4361 13.95 24.8303 14.1133 25.121 14.404C25.4117 14.6947 25.575 15.0889 25.575 15.5C25.575 15.9111 25.4117 16.3053 25.121 16.596C24.8303 16.8867 24.4361 17.05 24.025 17.05H13.175C12.7639 17.05 12.3697 16.8867 12.079 16.596C11.7883 16.3053 11.625 15.9111 11.625 15.5ZM11.625 21.7C11.625 21.2889 11.7883 20.8947 12.079 20.604C12.3697 20.3133 12.7639 20.15 13.175 20.15H24.025C24.4361 20.15 24.8303 20.3133 25.121 20.604C25.4117 20.8947 25.575 21.2889 25.575 21.7C25.575 22.1111 25.4117 22.5053 25.121 22.796C24.8303 23.0867 24.4361 23.25 24.025 23.25H13.175C12.7639 23.25 12.3697 23.0867 12.079 22.796C11.7883 22.5053 11.625 22.1111 11.625 21.7Z" fill="#6CD297" stroke="#6C6C6C"/>
</svg>
