<svg width="27" height="23" viewBox="0 0 27 23" fill="none" xmlns="http://www.w3.org/2000/svg">
<path d="M13.5 1C13.0315 1 12.5675 1.09048 12.1346 1.26626C11.7018 1.44205 11.3085 1.6997 10.9771 2.02451C10.6458 2.34932 10.383 2.73492 10.2037 3.15931C10.0244 3.58369 9.93214 4.03854 9.93214 4.4979C9.93214 4.95725 10.0244 5.4121 10.2037 5.83648C10.383 6.26087 10.6458 6.64647 10.9771 6.97128C11.3085 7.29609 11.7018 7.55374 12.1346 7.72953C12.5675 7.90532 13.0315 7.99579 13.5 7.99579C14.4463 7.99579 15.3538 7.62726 16.0229 6.97128C16.692 6.3153 17.0679 5.42559 17.0679 4.4979C17.0679 3.5702 16.692 2.68049 16.0229 2.02451C15.3538 1.36853 14.4463 1 13.5 1ZM21.5357 2.7472C20.8253 2.7472 20.144 3.02387 19.6417 3.51635C19.1393 4.00883 18.8571 4.67677 18.8571 5.37324C18.8571 6.06972 19.1393 6.73766 19.6417 7.23014C20.144 7.72262 20.8253 7.99929 21.5357 7.99929C22.2461 7.99929 22.9274 7.72262 23.4297 7.23014C23.9321 6.73766 24.2143 6.06972 24.2143 5.37324C24.2143 4.67677 23.9321 4.00883 23.4297 3.51635C22.9274 3.02387 22.2461 2.7472 21.5357 2.7472ZM5.46429 2.7472C4.75388 2.7472 4.07258 3.02387 3.57025 3.51635C3.06792 4.00883 2.78571 4.67677 2.78571 5.37324C2.78571 6.06972 3.06792 6.73766 3.57025 7.23014C4.07258 7.72262 4.75388 7.99929 5.46429 7.99929C6.17469 7.99929 6.85599 7.72262 7.35832 7.23014C7.86065 6.73766 8.14286 6.06972 8.14286 5.37324C8.14286 4.67677 7.86065 4.00883 7.35832 3.51635C6.85599 3.02387 6.17469 2.7472 5.46429 2.7472ZM8.14286 11.4884C8.14616 11.0262 8.33575 10.5841 8.67028 10.2584C9.00481 9.93274 9.45713 9.74998 9.92857 9.74999H17.0714C17.545 9.74999 17.9992 9.93444 18.3341 10.2628C18.669 10.5911 18.8571 11.0364 18.8571 11.5007V16.7528C18.8576 17.3038 18.7696 17.8515 18.5964 18.3757C18.201 19.5639 17.3865 20.575 16.2991 21.2274C15.2118 21.8798 13.9228 22.1308 12.6636 21.9353C11.4045 21.7398 10.2576 21.1107 9.42907 20.1608C8.6005 19.211 8.14447 18.0026 8.14286 16.7528V11.4884ZM6.35714 11.5007C6.35714 10.8617 6.53036 10.2647 6.83571 9.74999H2.78571C2.31211 9.74999 1.85791 9.93444 1.52302 10.2628C1.18814 10.5911 1 11.0364 1 11.5007V15.8774C0.999757 16.594 1.17898 17.2997 1.52192 17.9325C1.86486 18.5653 2.36103 19.1058 2.96686 19.5067C3.57269 19.9076 4.26965 20.1565 4.99653 20.2315C5.72341 20.3066 6.45797 20.2056 7.13571 19.9373C6.62284 18.9505 6.35602 17.8585 6.35714 16.751V11.5007ZM20.6429 11.5007V16.7528C20.6429 17.8995 20.3625 18.9814 19.8643 19.9373C20.542 20.2056 21.2766 20.3066 22.0035 20.2315C22.7303 20.1565 23.4273 19.9076 24.0331 19.5067C24.639 19.1058 25.1351 18.5653 25.4781 17.9325C25.821 17.2997 26.0002 16.594 26 15.8774V11.5007C26 11.0364 25.8119 10.5911 25.477 10.2628C25.1421 9.93444 24.6879 9.74999 24.2143 9.74999H20.1643C20.4679 10.2647 20.6429 10.8617 20.6429 11.5007Z" fill="#6CD297" stroke="#6C6C6C"/>
</svg>
