<svg width="19" height="19" viewBox="0 0 19 19" fill="none" xmlns="http://www.w3.org/2000/svg">
<g clip-path="url(#clip0_486_77)">
<path d="M9.50016 1.58325C13.8725 1.58325 17.4168 5.12754 17.4168 9.49992C17.4168 13.8723 13.8725 17.4166 9.50016 17.4166C5.12779 17.4166 1.5835 13.8723 1.5835 9.49992C1.5835 5.12754 5.12779 1.58325 9.50016 1.58325ZM9.50016 3.16659C7.82046 3.16659 6.20955 3.83385 5.02182 5.02158C3.83409 6.20931 3.16683 7.82021 3.16683 9.49992C3.16683 11.1796 3.83409 12.7905 5.02182 13.9783C6.20955 15.166 7.82046 15.8333 9.50016 15.8333C11.1799 15.8333 12.7908 15.166 13.9785 13.9783C15.1662 12.7905 15.8335 11.1796 15.8335 9.49992C15.8335 7.82021 15.1662 6.20931 13.9785 5.02158C12.7908 3.83385 11.1799 3.16659 9.50016 3.16659ZM9.50016 4.74992C9.69407 4.74994 9.88122 4.82113 10.0261 4.94998C10.171 5.07884 10.2636 5.25639 10.2863 5.44896L10.2918 5.54159V9.17217L12.4349 11.3152C12.5769 11.4577 12.6593 11.6488 12.6654 11.8499C12.6716 12.0509 12.601 12.2468 12.4679 12.3976C12.3349 12.5485 12.1494 12.6431 11.9492 12.6622C11.749 12.6812 11.549 12.6234 11.3899 12.5003L11.3155 12.4346L8.94045 10.0596C8.81741 9.93648 8.73839 9.77621 8.71562 9.60363L8.7085 9.49992V5.54159C8.7085 5.33162 8.7919 5.13026 8.94037 4.98179C9.08884 4.83333 9.2902 4.74992 9.50016 4.74992Z" fill="black"/>
</g>
<defs>
<clipPath id="clip0_486_77">
<rect width="19" height="19" fill="white"/>
</clipPath>
</defs>
</svg>
